<?xml version="1.0" encoding="UTF-8"?>
<svg id="Layer_2" data-name="Layer 2" xmlns="http://www.w3.org/2000/svg" xmlns:xlink="http://www.w3.org/1999/xlink" viewBox="0 0 89.69 49.4">
  <defs>
    <style>
      .cls-1 {
        fill: #ebebe8;
      }

      .cls-1, .cls-2 {
        stroke-width: 0px;
      }

      .cls-3 {
        stroke: #ebebe8;
        stroke-miterlimit: 10;
      }

      .cls-3, .cls-2 {
        fill: none;
      }

      .cls-4 {
        clip-path: url(#clippath);
      }
    </style>
    <clipPath id="clippath">
      <rect class="cls-2" width="89.69" height="49.4"/>
    </clipPath>
  </defs>
  <g id="Layer_1-2" data-name="Layer 1">
    <g id="Group_88" data-name="Group 88">
      <g class="cls-4">
        <g id="Group_87" data-name="Group 87">
          <path id="Path_156" data-name="Path 156" class="cls-1" d="M29.35,24.64s4.99-3.24,2.68-11.18c-1.18-2.68-3.16-4.94-5.67-6.46-4.19-2.53-4.85-3.33-4.85-4.47.09-1.06.7-2.01,1.62-2.53,0,0-.35.94.94,2.18,1.58,1.33,3.24,2.55,4.97,3.67,0,0,4.21,3.36,5.15,6.48.81,2.98.34,6.16-1.31,8.77-1.03,1.31-2.22,2.5-3.52,3.53"/>
          <path id="Path_157" data-name="Path 157" class="cls-1" d="M29.35,24.64s4.99-3.24,2.68-11.18c-1.18-2.68-3.16-4.94-5.67-6.46-4.19-2.53-4.85-3.33-4.85-4.47.09-1.06.69-2.01,1.62-2.53,0,0-.35.94.94,2.18,1.58,1.33,3.24,2.55,4.97,3.67,0,0,4.21,3.36,5.15,6.48.82,2.98.34,6.16-1.31,8.77-1.03,1.31-2.22,2.5-3.52,3.53"/>
          <path id="Path_158" data-name="Path 158" class="cls-1" d="M28.77,27.33s5.95-.03,8.28-7.97c.45-2.9,0-5.87-1.3-8.5-2.17-4.39-2.29-5.42-1.68-6.38.65-.85,1.67-1.31,2.73-1.25,0,0-.8.6-.39,2.34.62,1.97,1.36,3.9,2.21,5.77,0,0,1.74,5.09.84,8.23-.92,2.95-3.04,5.37-5.83,6.68-1.58.55-3.21.91-4.87,1.08"/>
          <path id="Path_159" data-name="Path 159" class="cls-1" d="M28.77,27.33s5.95-.03,8.28-7.97c.45-2.9,0-5.87-1.3-8.5-2.17-4.39-2.29-5.42-1.68-6.38.65-.85,1.67-1.31,2.73-1.25,0,0-.8.6-.39,2.34.62,1.97,1.36,3.9,2.21,5.77,0,0,1.74,5.09.84,8.23-.92,2.95-3.04,5.37-5.83,6.68-1.58.55-3.21.91-4.87,1.08"/>
          <path id="Path_160" data-name="Path 160" class="cls-1" d="M26.82,29.28s5.03,3.18,11.27-2.26c1.94-2.2,3.16-4.94,3.48-7.86.54-4.87.99-5.8,2.02-6.28,1-.37,2.12-.21,2.98.42,0,0-.99.08-1.59,1.76-.54,1.99-.96,4.01-1.25,6.06,0,0-1.29,5.23-3.73,7.39-2.36,1.99-5.45,2.89-8.51,2.48-1.62-.39-3.19-.97-4.68-1.72"/>
          <path id="Path_161" data-name="Path 161" class="cls-1" d="M26.82,29.28s5.03,3.18,11.27-2.26c1.94-2.2,3.16-4.94,3.48-7.86.54-4.87.99-5.8,2.02-6.28,1-.36,2.12-.21,2.98.42,0,0-.99.08-1.59,1.77-.54,1.99-.96,4.01-1.25,6.06,0,0-1.29,5.23-3.73,7.39-2.36,1.99-5.45,2.89-8.51,2.48-1.62-.39-3.19-.97-4.68-1.72"/>
          <path id="Path_162" data-name="Path 162" class="cls-1" d="M24.13,29.88s2.53,5.38,10.71,4.17c2.82-.8,5.32-2.46,7.17-4.74,3.08-3.81,3.95-4.35,5.09-4.2,1.04.23,1.89.97,2.28,1.96,0,0-.88-.47-2.29.63-1.53,1.39-2.97,2.87-4.32,4.43,0,0-3.9,3.71-7.12,4.22-3.06.4-6.15-.51-8.51-2.5-1.16-1.2-2.17-2.53-3.02-3.97"/>
          <path id="Path_163" data-name="Path 163" class="cls-1" d="M24.13,29.88s2.53,5.38,10.71,4.17c2.82-.8,5.32-2.46,7.17-4.74,3.08-3.81,3.95-4.35,5.09-4.2,1.04.23,1.89.97,2.28,1.96,0,0-.88-.47-2.29.63-1.53,1.39-2.97,2.87-4.32,4.43,0,0-3.9,3.71-7.12,4.22-3.06.4-6.15-.51-8.51-2.5-1.16-1.2-2.17-2.53-3.02-3.97"/>
          <path id="Path_164" data-name="Path 164" class="cls-1" d="M21.54,28.94s-.77,5.9,6.78,9.29c2.81.84,5.81.79,8.59-.13,4.64-1.55,5.68-1.54,6.55-.8.75.75,1.08,1.83.87,2.88,0,0-.49-.87-2.27-.7-2.03.34-4.05.81-6.02,1.41,0,0-5.29,1.03-8.27-.28-2.79-1.31-4.91-3.74-5.82-6.69-.33-1.64-.47-3.31-.41-4.97"/>
          <path id="Path_165" data-name="Path 165" class="cls-1" d="M21.54,28.94s-.77,5.9,6.78,9.29c2.81.84,5.81.79,8.59-.13,4.64-1.55,5.68-1.54,6.55-.8.75.75,1.08,1.83.87,2.88,0,0-.49-.87-2.27-.7-2.03.34-4.05.81-6.02,1.41,0,0-5.29,1.03-8.27-.28-2.79-1.31-4.91-3.74-5.82-6.69-.33-1.64-.47-3.31-.41-4.97"/>
          <path id="Path_166" data-name="Path 166" class="cls-1" d="M19.87,26.75s-3.83,4.55.71,11.47c1.91,2.22,4.47,3.8,7.31,4.52,4.75,1.2,5.61,1.76,5.95,2.86.23,1.04-.08,2.12-.82,2.89,0,0,.06-1-1.53-1.81-1.9-.81-3.85-1.49-5.83-2.06,0,0-5.01-1.99-6.81-4.69-1.65-2.61-2.12-5.79-1.3-8.77.61-1.55,1.39-3.03,2.34-4.41"/>
          <path id="Path_167" data-name="Path 167" class="cls-1" d="M19.87,26.75s-3.83,4.55.71,11.47c1.91,2.22,4.47,3.8,7.31,4.52,4.75,1.2,5.61,1.76,5.95,2.86.23,1.04-.08,2.12-.82,2.89,0,0,.06-1-1.53-1.81-1.9-.81-3.85-1.49-5.83-2.06,0,0-5.01-1.99-6.81-4.69-1.65-2.61-2.12-5.79-1.3-8.77.61-1.55,1.39-3.03,2.34-4.41"/>
          <path id="Path_168" data-name="Path 168" class="cls-1" d="M19.64,24s-5.68,1.77-5.59,10.05c.42,2.9,1.72,5.61,3.73,7.75,3.36,3.56,3.78,4.51,3.47,5.61-.37,1-1.22,1.75-2.25,2,0,0,.59-.81-.31-2.35-1.17-1.7-2.44-3.33-3.8-4.88,0,0-3.15-4.37-3.21-7.63.02-3.09,1.33-6.02,3.63-8.09,1.35-.98,2.81-1.81,4.34-2.46"/>
          <path id="Path_169" data-name="Path 169" class="cls-1" d="M20.93,21.56s-5.74-1.57-10.12,5.45c-1.21,2.67-1.58,5.65-1.04,8.53.9,4.81.75,5.83-.1,6.59-.85.64-1.96.82-2.97.47,0,0,.93-.36,1-2.15-.07-2.06-.26-4.12-.58-6.16,0,0-.3-5.38,1.4-8.15,1.68-2.59,4.37-4.36,7.41-4.86,1.67-.1,3.34-.01,4.98.27"/>
          <path id="Path_170" data-name="Path 170" class="cls-1" d="M20.93,21.56s-5.74-1.57-10.12,5.45c-1.21,2.67-1.58,5.65-1.04,8.53.9,4.81.75,5.83-.1,6.59-.85.64-1.96.82-2.97.47,0,0,.93-.36,1-2.15-.07-2.06-.26-4.12-.58-6.16,0,0-.3-5.38,1.4-8.15,1.68-2.59,4.37-4.36,7.41-4.86,1.67-.1,3.34-.01,4.98.27"/>
          <path id="Path_171" data-name="Path 171" class="cls-1" d="M23.33,20.2s-3.99-4.41-11.47-.86c-2.46,1.6-4.37,3.91-5.47,6.63-1.83,4.54-2.51,5.32-3.64,5.5-1.06.08-2.1-.37-2.76-1.21,0,0,.98.19,2.01-1.27,1.06-1.77,2-3.61,2.83-5.5,0,0,2.65-4.69,5.57-6.11,2.81-1.28,6.03-1.31,8.87-.1,1.46.81,2.82,1.79,4.05,2.91"/>
          <path id="Path_172" data-name="Path 172" class="cls-1" d="M23.33,20.2s-3.99-4.41-11.47-.86c-2.46,1.6-4.37,3.91-5.47,6.63-1.83,4.54-2.51,5.32-3.64,5.5-1.06.08-2.1-.37-2.76-1.21,0,0,.98.19,2.01-1.27,1.06-1.77,2-3.61,2.83-5.5,0,0,2.65-4.69,5.57-6.11,2.81-1.28,6.03-1.31,8.87-.1,1.46.81,2.82,1.79,4.05,2.91"/>
          <path id="Path_173" data-name="Path 173" class="cls-1" d="M26.08,20.35s-.99-5.86-9.2-6.9c-2.93.02-5.79.94-8.18,2.64-3.99,2.84-4.98,3.13-6.03,2.67-.94-.5-1.57-1.44-1.67-2.5,0,0,.72.69,2.37,0,1.84-.92,3.63-1.96,5.35-3.1,0,0,4.76-2.53,7.99-2.15,3.06.44,5.79,2.14,7.52,4.69.79,1.47,1.41,3.03,1.84,4.64"/>
          <path id="Path_174" data-name="Path 174" class="cls-1" d="M26.08,20.35s-.99-5.86-9.2-6.9c-2.93.02-5.79.94-8.18,2.64-3.99,2.84-4.98,3.13-6.03,2.67-.94-.5-1.57-1.44-1.67-2.5,0,0,.72.69,2.37,0,1.84-.92,3.63-1.96,5.35-3.1,0,0,4.76-2.53,7.99-2.15,3.06.44,5.79,2.14,7.52,4.69.79,1.47,1.41,3.03,1.84,4.64"/>
          <path id="Path_175" data-name="Path 175" class="cls-1" d="M28.32,21.96s2.33-5.47-4.03-10.77c-2.48-1.57-5.38-2.33-8.31-2.18-4.89.25-5.88-.05-6.52-1-.52-.93-.54-2.06-.06-3.01,0,0,.24.97,2,1.29,2.05.22,4.11.31,6.18.27,0,0,5.37.43,7.89,2.5,2.34,2.01,3.72,4.92,3.81,8-.12,1.66-.44,3.31-.94,4.9"/>
          <path id="Path_176" data-name="Path 176" class="cls-1" d="M28.32,21.96s2.33-5.47-4.03-10.77c-2.48-1.57-5.38-2.33-8.31-2.18-4.89.25-5.88-.05-6.52-1-.52-.93-.54-2.06-.06-3.01,0,0,.24.97,2,1.29,2.05.22,4.11.3,6.18.27,0,0,5.37.43,7.89,2.5,2.34,2.01,3.72,4.92,3.81,8-.12,1.66-.44,3.31-.94,4.9"/>
          <path id="Path_177" data-name="Path 177" class="cls-1" d="M60.02,18.4v2.51h-.21c-.04-.4-.16-.79-.35-1.15-.17-.29-.42-.52-.72-.68-.3-.16-.63-.25-.96-.25-.34-.01-.68.11-.93.34-.23.2-.36.48-.37.78,0,.22.08.44.23.61.47.44,1.01.81,1.6,1.08.49.25.96.53,1.41.84.24.19.44.42.58.69.13.26.2.55.2.84,0,.55-.23,1.07-.65,1.43-.45.41-1.05.63-1.67.6-.2,0-.4-.01-.6-.05-.23-.05-.47-.12-.7-.2-.22-.08-.44-.14-.67-.17-.08,0-.16.03-.21.08-.07.1-.11.22-.12.34h-.21v-2.51h.21c.05.41.18.82.38,1.18.18.28.43.51.73.65.33.17.7.26,1.07.26.39.02.77-.11,1.07-.36.25-.21.39-.52.39-.84,0-.19-.05-.38-.15-.55-.12-.2-.27-.38-.46-.51-.37-.25-.75-.48-1.15-.69-.47-.25-.91-.53-1.34-.84-.25-.19-.45-.42-.61-.69-.14-.26-.21-.54-.21-.83,0-.52.22-1.01.61-1.36.42-.38.97-.59,1.54-.57.43,0,.85.1,1.24.28.13.07.28.11.43.13.08,0,.17-.03.23-.08.08-.1.13-.21.14-.33h.21Z"/>
          <path id="Path_178" data-name="Path 178" class="cls-1" d="M66.73,18.76v-.21h2.6v.21h-.28c-.27,0-.53.13-.67.36-.1.25-.14.51-.11.78v2.97c.02.58-.05,1.16-.22,1.71-.17.43-.47.8-.86,1.04-.53.31-1.13.47-1.75.43-.63.04-1.27-.1-1.82-.42-.41-.27-.72-.66-.88-1.12-.15-.59-.21-1.2-.17-1.81v-2.86c.04-.31-.03-.62-.18-.88-.16-.15-.38-.23-.6-.21h-.28v-.21h3.15v.21h-.28c-.25-.02-.49.09-.64.29-.11.25-.16.53-.13.81v3.19c0,.33.03.65.08.98.03.3.13.6.28.86.15.22.36.39.59.51.3.14.62.21.95.2.45,0,.89-.1,1.29-.31.34-.17.62-.45.77-.8.17-.53.24-1.1.21-1.65v-2.96c.03-.29-.02-.59-.16-.86-.16-.17-.39-.25-.63-.24h-.28Z"/>
          <path id="Path_179" data-name="Path 179" class="cls-1" d="M72.07,22.12h.3c.56.04,1.11-.12,1.56-.45.34-.29.54-.71.53-1.16.04-.81-.57-1.5-1.38-1.55-.06,0-.11,0-.17,0-.28.01-.56.05-.84.12v3.04ZM77.29,25.9h-1.97l-2.5-3.43c-.18,0-.33.01-.44.01h-.15c-.05,0-.11,0-.16,0v2.13c-.04.29.02.59.15.86.16.17.39.25.62.24h.29v.21h-3.15v-.21h.28c.26.02.51-.09.67-.3.1-.25.14-.52.11-.79v-4.75c.04-.29-.02-.59-.15-.86-.16-.17-.39-.25-.63-.24h-.28v-.21h2.68c.58-.02,1.16.04,1.73.17.37.11.7.33.94.63.26.3.4.69.39,1.09,0,.43-.15.85-.44,1.18-.37.37-.85.62-1.37.7l1.52,2.11c.24.37.54.69.89.96.3.17.63.28.97.3v.21"/>
          <path id="Path_180" data-name="Path 180" class="cls-1" d="M80.95,25.69v.21h-3.15v-.21h.26c.25.02.5-.08.66-.26.11-.26.16-.54.13-.83v-4.74c.01-.25,0-.49-.07-.73-.05-.1-.12-.18-.22-.23-.15-.08-.33-.13-.5-.13h-.26v-.21h3.15v.21h-.27c-.25-.02-.49.08-.66.26-.12.26-.17.54-.13.83v4.75c-.01.25,0,.49.07.73.05.1.13.18.23.23.15.08.32.13.49.13h.27Z"/>
          <path id="Path_181" data-name="Path 181" class="cls-1" d="M86.46,23.02l-1.22-2.97-1.28,2.97h2.5ZM86.63,23.44h-2.85l-.5,1.16c-.1.2-.16.41-.19.63,0,.12.06.23.16.29.21.11.45.17.69.16v.21h-2.32v-.21c.21-.02.42-.09.6-.21.27-.31.47-.67.61-1.06l2.62-6.02h.23l2.52,6.1c.12.35.31.67.56.95.2.16.45.24.7.25v.21h-2.92v-.21c.21,0,.41-.04.59-.14.1-.07.15-.18.15-.3-.03-.26-.1-.51-.22-.74l-.44-1.07"/>
          <path id="Path_182" data-name="Path 182" class="cls-1" d="M62.61,33.66l2.03,2.02c.25.27.53.5.85.69.22.12.46.19.7.21v.15h-2.62v-.15c.12,0,.24-.02.34-.08.06-.04.1-.11.1-.18,0-.06-.01-.12-.04-.18-.07-.11-.16-.2-.25-.29l-1.9-1.89v1.78c-.01.19,0,.38.05.56.04.08.1.14.17.18.11.06.24.1.37.1h.19v.16h-2.36v-.15h.19c.19.02.37-.06.49-.2.09-.2.12-.42.1-.63v-3.55c0-.19,0-.38-.05-.56-.04-.07-.09-.13-.16-.17-.11-.06-.24-.1-.37-.1h-.19v-.14h2.36v.15h-.19c-.13,0-.26.03-.37.1-.08.04-.14.11-.18.2-.04.18-.06.36-.05.54v1.68l.56-.52c.53-.45,1.01-.94,1.46-1.47.06-.08.1-.18.11-.28,0-.06-.03-.13-.08-.16-.09-.06-.19-.08-.29-.07h-.13v-.15h2.03v.15c-.11,0-.22.02-.33.05-.13.04-.25.1-.36.18-.19.12-.36.26-.52.42-.06.05-.34.33-.83.83l-.84.83Z"/>
          <path id="Path_183" data-name="Path 183" class="cls-1" d="M71.23,35.21l.13.03-.47,1.49h-4.26v-.15h.21c.19.02.38-.07.5-.23.07-.19.1-.4.08-.6v-3.55c.03-.22-.01-.45-.11-.65-.12-.13-.29-.19-.47-.18h-.21v-.15h2.49v.15c-.21-.02-.42.01-.61.08-.1.04-.19.12-.24.21-.06.2-.08.41-.06.61v3.48c-.01.16.01.32.06.46.03.06.09.1.15.13.21.04.42.05.63.04h.4c.3.02.6-.02.89-.09.18-.07.34-.18.47-.33.18-.22.32-.48.42-.75"/>
          <path id="Path_184" data-name="Path 184" class="cls-1" d="M76.87,31.09l.13,1.87h-.13c-.11-.47-.36-.89-.71-1.21-.32-.25-.71-.38-1.12-.37-.35,0-.69.09-.99.28-.32.22-.56.53-.69.89-.18.48-.27,1-.25,1.52-.01.44.07.88.24,1.29.14.35.4.64.72.84.33.2.71.3,1.1.29.33,0,.65-.07.94-.23.36-.24.67-.55.9-.91l.13.08c-.23.44-.56.81-.97,1.08-.4.24-.85.35-1.31.34-.83.04-1.63-.34-2.12-1.01-.38-.51-.58-1.14-.56-1.78,0-.53.12-1.05.37-1.51.23-.44.58-.81,1.01-1.07.43-.25.91-.38,1.41-.38.41,0,.81.1,1.17.29.07.05.16.08.24.09.07,0,.14-.03.19-.08.08-.09.13-.19.15-.31h.14Z"/>
          <path id="Path_185" data-name="Path 185" class="cls-1" d="M82.75,31.09l.13,1.87h-.13c-.11-.47-.36-.89-.72-1.21-.32-.25-.71-.38-1.12-.37-.35,0-.69.09-.99.28-.32.22-.56.53-.69.89-.18.48-.27,1-.25,1.52,0,.44.07.88.24,1.29.15.35.4.64.72.84.33.2.71.3,1.1.29.33,0,.65-.07.94-.23.36-.24.67-.55.9-.91l.13.08c-.23.44-.56.81-.97,1.08-.4.24-.85.35-1.31.34-.83.04-1.63-.34-2.12-1.01-.38-.51-.58-1.14-.56-1.78,0-.53.12-1.05.37-1.51.23-.44.58-.81,1.01-1.07.43-.25.91-.38,1.41-.38.41,0,.81.1,1.17.29.07.05.16.08.24.09.07,0,.14-.03.19-.08.08-.09.13-.19.15-.31h.15Z"/>
          <line id="Line_8" data-name="Line 8" class="cls-3" x1="55.32" y1="27.96" x2="89.69" y2="27.96"/>
        </g>
      </g>
    </g>
  </g>
</svg>