<?xml version="1.0" encoding="UTF-8"?>
<svg id="Layer_2" data-name="Layer 2" xmlns="http://www.w3.org/2000/svg" xmlns:xlink="http://www.w3.org/1999/xlink" viewBox="0 0 207.38 40.28">
  <defs>
    <style>
      .cls-1 {
        fill: #ebebe8;
      }

      .cls-1, .cls-2 {
        stroke-width: 0px;
      }

      .cls-2 {
        fill: none;
      }

      .cls-3 {
        clip-path: url(#clippath);
      }
    </style>
    <clipPath id="clippath">
      <rect class="cls-2" width="207.38" height="40.28"/>
    </clipPath>
  </defs>
  <g id="Layer_1-2" data-name="Layer 1">
    <g id="Group_39" data-name="Group 39">
      <path id="Path_26" data-name="Path 26" class="cls-1" d="M41.64,0v8.72l13.66,7.88V7.86L41.64,0Z"/>
      <path id="Path_27" data-name="Path 27" class="cls-1" d="M41.64,0l-9.36,5.43,7.3,4.5,2.06-1.2V0Z"/>
      <path id="Path_28" data-name="Path 28" class="cls-1" d="M28.16,7.86l27.14,15.72-7.49,4.31-19.66-11.52V7.86Z"/>
      <path id="Path_29" data-name="Path 29" class="cls-1" d="M28.16,32.29l13.48,7.99v-8.71l-13.48-7.88v8.6Z"/>
      <path id="Path_30" data-name="Path 30" class="cls-1" d="M41.64,31.57v8.71l13.66-8.04v-8.65l-13.66,7.99Z"/>
      <g id="Group_38" data-name="Group 38">
        <g class="cls-3">
          <g id="Group_37" data-name="Group 37">
            <path id="Path_31" data-name="Path 31" class="cls-1" d="M61.05,10.27c1.02-1.06,2.44-1.65,3.91-1.62h19.49v19.03h-4.37v-14.68h-5.95v14.68h-4.34v-14.68h-4.83c-.63,0-1.15.52-1.15,1.15v13.53h-4.37v-13.51c-.03-1.47.56-2.89,1.62-3.91ZM103,22.85h-11.59v4.83h-4.34v-13.38c-.04-1.49.55-2.92,1.6-3.97,1.01-1.08,2.43-1.69,3.91-1.68h14.77v19.03h-4.34v-4.83ZM103,18.51v-5.53h-10.43c-.3-.02-.6.09-.82.29-.21.19-.33.46-.34.74v4.49h11.59ZM111.59,10.3c1.01-1.07,2.43-1.67,3.91-1.65h15.68v7.55c0,2.25-1.34,4.28-3.42,5.13l3.17,6.34h-4.33l-3.18-5.98h-9.1v5.98h-4.34v-13.5c0-1.46.58-2.87,1.63-3.89h0ZM115.5,13c-.31,0-.61.13-.82.36-.23.21-.36.51-.36.82v3.16h11.45c.59,0,1.07-.48,1.07-1.07v-3.28h-11.34,0ZM154.17,8.66v4.35h-7.88v14.67h-4.36v-14.68h-8.16v-4.35h20.39ZM179.44,8.66l-7.52,9.52,7.52,9.52h-5.37l-5.97-7.55-5.97,7.55h-5.37l7.52-9.52-7.52-9.53h5.37l5.97,7.55,5.97-7.55,5.37.02Z"/>
            <rect id="Rectangle_12" data-name="Rectangle 12" class="cls-1" x="59.4" y="31.68" width="64.19" height="2.73"/>
            <path id="Path_32" data-name="Path 32" class="cls-1" d="M207.03,11.03h-24.36v-2.47h24.36v2.47ZM207.03,16.9h-24.36v2.47h24.36v-2.47ZM207.03,25.23h-24.36v2.47h24.36v-2.47ZM24.36,8.56H0v2.47h24.36v-2.47ZM24.36,16.9H0v2.47h24.36v-2.47ZM24.36,25.23H0v2.47h24.36v-2.47Z"/>
            <path id="Path_33" data-name="Path 33" class="cls-1" d="M133.03,30.36v6.15h-1.13v-2.51h-4.04v2.51h-1.12v-6.15h1.13v2.51h4.04v-2.51h1.12ZM140.15,33.22c0,.66-.54,1.19-1.2,1.19h-.33l1.53,1.82v.29h-1.23l-1.77-2.11h-2.01v2.11h-1.13v-6.15h4.96c.66,0,1.19.53,1.2,1.19v1.66h-.01ZM138.96,33.28s.06-.02.06-.05v-1.66s-.02-.06-.05-.06h-3.77s-.06.02-.06.05v1.66s.02.06.05.06h3.77ZM147.16,32.75c-.23.38-.23.85,0,1.23v1.36c0,.65-.53,1.18-1.18,1.18h-3.74c-.65,0-1.18-.53-1.18-1.18h0v-1.36c.23-.38.23-.85,0-1.23v-1.21c0-.65.53-1.18,1.18-1.18h3.74c.58,0,1.07.41,1.18.97v1.41h0ZM146.04,31.55s-.02-.06-.05-.06h-3.74s-.06.02-.06.05v1.29s.02.06.05.06h3.74s.06-.02.06-.05v-1.29ZM146.04,33.98s-.02-.05-.06-.05h-3.74s-.06.02-.06.05v1.36s.02.06.05.06h3.74s.06-.02.06-.05v-1.36h0ZM156.93,32.02h-1.14v-.47s-.02-.06-.05-.06h0s-3.78,0-3.78,0c-.03,0-.06.02-.06.05v1.27s.02.06.05.06c0,0,0,0,0,0h3.78c.66,0,1.19.53,1.19,1.19v1.26c0,.66-.53,1.19-1.19,1.19h-3.78c-.65,0-1.18-.52-1.19-1.17h0v-.48h1.13v.47s.02.06.05.06h3.78s.05-.03.05-.06v-1.26s-.02-.06-.05-.06c0,0,0,0,0,0h-3.78c-.65,0-1.18-.52-1.19-1.17h0v-1.28c0-.65.52-1.18,1.17-1.19,0,0,0,0,0,0h3.79c.66,0,1.19.53,1.19,1.19v.47ZM157.86,30.37h1.13v6.15h-1.13v-6.15ZM165.89,32.03h-1.14v-.48s-.02-.06-.05-.06h-3.78s-.06.02-.06.05v3.78s.02.06.05.06h3.78s.06-.02.06-.05v-1.17h-1.39v-1.13h2.53v2.29c0,.66-.54,1.19-1.2,1.19h-3.76c-.65,0-1.18-.52-1.19-1.17h0v-3.79c0-.65.52-1.18,1.17-1.19,0,0,0,0,0,0h3.78c.66,0,1.19.53,1.2,1.19v.49ZM171.84,30.37h1.14v6.15h-1.23l-3.8-4.51v4.51h-1.13v-6.16h1.23l3.79,4.51v-4.51ZM178.91,30.37c.66,0,1.19.53,1.2,1.19v4.97h-1.13v-2.07h-3.89v2.07h-1.13v-4.97c0-.65.52-1.18,1.17-1.19,0,0,0,0,0,0h3.79ZM178.98,33.32v-1.77s-.02-.06-.05-.06h-3.78s-.06.02-.06.05v1.78h3.89ZM186.94,30.37v1.13h-2.51v5.02h-1.14v-5.02h-2.51v-1.13h6.16ZM192.58,30.37h1.14v4.96c0,.66-.53,1.19-1.19,1.19h-3.78c-.65,0-1.18-.52-1.19-1.17h0v-4.98h1.13v4.97s.02.06.05.06h3.78s.05-.03.05-.06v-4.96ZM200.8,33.22c0,.66-.54,1.19-1.2,1.19h-.34l1.53,1.82v.29h-1.23l-1.77-2.11h-2.02v2.11h-1.13v-6.15h4.96c.66,0,1.19.53,1.2,1.19v1.66h0ZM199.61,33.28s.06-.02.06-.05v-1.66s-.02-.06-.05-.06h-3.78s-.06.02-.06.05v1.66s.02.06.05.06h3.78ZM207.39,31.5h-4.52v1.39h3.64v1.13h-3.64v1.39h4.52v1.13h-5.66v-6.16h5.66v1.13h0Z"/>
          </g>
        </g>
      </g>
    </g>
  </g>
</svg>