<?xml version="1.0" encoding="UTF-8"?>
<svg id="Layer_2" data-name="Layer 2" xmlns="http://www.w3.org/2000/svg" xmlns:xlink="http://www.w3.org/1999/xlink" viewBox="0 0 132 46">
  <defs>
    <style>
      .cls-1 {
        fill: #ebebe8;
      }

      .cls-1, .cls-2 {
        stroke-width: 0px;
      }

      .cls-2 {
        fill: none;
      }

      .cls-3 {
        clip-path: url(#clippath);
      }
    </style>
    <clipPath id="clippath">
      <rect class="cls-2" width="132" height="46"/>
    </clipPath>
  </defs>
  <g id="Layer_1-2" data-name="Layer 1">
    <g id="Group_78" data-name="Group 78">
      <g class="cls-3">
        <g id="Group_77" data-name="Group 77">
          <path id="Path_86" data-name="Path 86" class="cls-1" d="M15.81,45.83c-5.33.09-10.59-1.11-15.35-3.5-1.02-.55-1.42-1.05-.44-1.96.11-.12.22-.25.31-.38.96-1.11,1.72-2.75,2.92-3.19,1.24-.45,2.57,1.04,3.92,1.55,3.98,1.83,8.51,2.06,12.65.64,2.78-.77,4.42-3.64,3.65-6.43-.26-.93-.77-1.78-1.48-2.44-2.1-2.06-4.52-3.76-7.17-5.05-3.32-1.75-6.48-3.79-9.45-6.09C-.51,14.07.22,6.99,7.07,3.47,13.04.48,19.9-.26,26.38,1.41c2.16.45,4.25,1.2,6.2,2.23.82.45,1.23.79.41,1.8-2.82,3.48-2.76,3.52-7.03,2.06-2.83-1.13-5.96-1.3-8.9-.48-4.28,1.36-5.01,4.72-1.62,7.66,3.39,2.94,7.57,4.81,11.25,7.38,2.97,1.75,5.5,4.13,7.42,6.99,2.28,3.41,1.78,7.96-1.19,10.79-2.45,2.55-5.61,4.31-9.08,5.04-2.61.71-5.31,1.04-8.01.96"/>
          <path id="Path_87" data-name="Path 87" class="cls-1" d="M129.85,27.24c.15,4.09-.55,8,1.56,11.54.34.57-.04.68-.5.68-2.13,0-4.25.04-6.38-.03-1-.03-1.4-.93-1.46-1.71-.14-1.54-.67-1.31-1.61-.6-2.68,2.21-6.15,3.23-9.6,2.82-4.09-.22-7.37-3.44-7.66-7.53-.16-2.33.92-4.56,2.83-5.9,3.27-2.56,7.24-3.27,11.1-4.27.95-.25,1.93-.36,2.87-.62,1.7-.46,1.82-.92.52-2.19-1.88-1.66-4.49-2.21-6.88-1.43-1.6.33-3.13.96-4.5,1.85-1.04.68-3.1-.4-3.79-1.96-.56-1.26.68-1.52,1.34-1.91,5.15-3.04,11.41-3.56,16.99-1.42,3.09.95,5.18,3.83,5.15,7.06.08,1.96.02,3.92.02,5.6M115.01,35.11c4.23.03,8.57-4.92,7.88-8.65-.08-.46-.25-.84-.75-.71-3.11.84-6.47,1-9.14,3.1-1.34.91-1.86,2.64-1.25,4.14.53,1.32,1.83,2.17,3.25,2.12"/>
          <path id="Path_88" data-name="Path 88" class="cls-1" d="M56.73,27.79c-2.86,0-5.72-.02-8.58,0-1.99.02-2.15.27-1.28,2.11,1.62,3.51,5.2,5.71,9.07,5.55,2.62,0,5.22-.57,7.6-1.66,1.28-.53,2.3.23,3.25,2.25.63,1.34-.62,1.28-1.19,1.56-6.18,3.26-13.55,3.35-19.81.25-5.34-2.58-7.3-7.28-6.79-12.98.49-5.42,3.92-8.72,8.81-10.36,5.02-1.68,10.15-1.97,14.82,1.21,3.73,2.55,4.79,6.42,4.73,10.71-.01,1.28-.8,1.38-1.81,1.37-2.94-.03-5.89-.01-8.83-.01M53.64,23.33c1.79,0,3.59-.04,5.38.01,1.19.04,1.58-.23,1.17-1.53-.91-2.64-3.56-4.26-6.32-3.88-3.3.21-6.54,2.37-6.91,4.55-.17,1,.54.82,1.05.83,1.87.03,3.75,0,5.63.01"/>
          <path id="Path_89" data-name="Path 89" class="cls-1" d="M73,26v-5.4c0-2.97.23-2.77-2.57-2.67-1.34.05-1.86-.31-1.86-1.75s.52-1.81,1.85-1.73c2.92.17,2.56-.07,2.58-2.44q.02-3.21,3.19-4.07,3.42-.93,3.42,2.63,0,3.91,3.85,3.91c.78.04,1.55.04,2.33,0,.96-.16,1.86.48,2.02,1.44.03.15.03.3.02.45-.07,1.11-.29,1.64-1.53,1.58-1.8-.09-3.6,0-5.4-.03-.93-.02-1.32.33-1.3,1.29.06,4.25-.04,8.51.14,12.75.14,3.12,1.3,4.02,4.38,3.83.82-.02,1.62-.18,2.39-.46,1.06-.43,1.62-.11,2.16.83,1.17,2.01,1.1,2.22-1.15,2.97-3.17,1.16-6.64,1.18-9.82.03-2.71-1.04-4.54-3.59-4.65-6.49-.11-2.21-.01-4.44-.01-6.66h-.05"/>
          <path id="Path_90" data-name="Path 90" class="cls-1" d="M93,26.46c0-3.59.05-7.18-.03-10.78-.03-1.28.4-1.64,1.66-1.69,5.14-.17,5.14-.21,5.14,4.8,0,6.04-.06,12.08.04,18.12.02,1.13-.88,2.06-2,2.08h-.06c-2.61.02-4.75-2.09-4.75-4.7v-8.3"/>
          <path id="Path_91" data-name="Path 91" class="cls-1" d="M96.29.14c2.1,1.65,3.95,3.61,5.49,5.79-.04.24-.14.46-.31.63-1.48,1.62-2.99,3.21-4.45,4.85-.56.64-.96.38-1.38-.09-1.43-1.55-2.85-3.12-4.3-4.66-.37-.38-.7-.74-.25-1.23,1.54-1.67,3.09-3.33,4.66-4.98.16-.13.34-.24.53-.33"/>
        </g>
      </g>
    </g>
  </g>
</svg>