<?xml version="1.0" encoding="UTF-8"?>
<svg id="Layer_2" data-name="Layer 2" xmlns="http://www.w3.org/2000/svg" xmlns:xlink="http://www.w3.org/1999/xlink" viewBox="0 0 150.28 49.18">
  <defs>
    <style>
      .cls-1 {
        fill: #ebebe8;
      }

      .cls-1, .cls-2 {
        stroke-width: 0px;
      }

      .cls-2 {
        fill: none;
      }

      .cls-3 {
        clip-path: url(#clippath);
      }
    </style>
    <clipPath id="clippath">
      <rect class="cls-2" width="150.28" height="49.18"/>
    </clipPath>
  </defs>
  <g id="Layer_1-2" data-name="Layer 1">
    <g class="cls-3">
      <g id="Group_89" data-name="Group 89">
        <path id="Path_186" data-name="Path 186" class="cls-1" d="M74.34,33.61v2.19c.69-1.57,2.29-2.54,4.01-2.42,2.21,0,3.43,1.2,3.75,2.3.76-1.49,2.32-2.39,3.99-2.3,1.38-.05,2.69.59,3.5,1.7.36.81.5,1.7.4,2.58v7.33h-1.77v-7.14c0-.97.19-3.34-2.68-3.34-3.39,0-3.31,4.1-3.31,5.23v5.26h-1.77v-7.14c0-1.09.04-3.34-2.64-3.34-3.24,0-3.34,3.5-3.34,5.23v5.26h-1.76v-11.38"/>
        <path id="Path_187" data-name="Path 187" class="cls-1" d="M93.67,42.09c.06,1.17,1.05,2.07,2.22,2.01.04,0,.08,0,.12,0,1.07,0,2.06-.53,2.66-1.41.61-1.14.87-2.43.75-3.71v-.62c-3.24,1.13-5.75,1.71-5.75,3.71v.02ZM99.7,44.99l-.15-2.17c-.84,1.49-2.42,2.41-4.13,2.39-2.36,0-3.73-1.42-3.73-2.99,0-2.93,4.54-3.71,7.74-4.86v-.41c0-1.87-1.28-2.53-2.94-2.53-1.26.03-2.5.39-3.58,1.04l-.4-.97c1.29-.73,2.75-1.11,4.24-1.11,1.66,0,3.41.51,4.07,1.68.33.66.46,1.41.38,2.14v3.64c-.08,1.39.04,2.79.35,4.15"/>
        <rect id="Rectangle_40" data-name="Rectangle 40" class="cls-1" x="103.38" y="28.29" width="1.77" height="16.7"/>
        <path id="Path_188" data-name="Path 188" class="cls-1" d="M108.5,42.09c.06,1.17,1.05,2.07,2.22,2.01.04,0,.08,0,.12,0,1.06,0,2.06-.53,2.66-1.41.61-1.14.87-2.43.74-3.71v-.62c-3.24,1.13-5.75,1.71-5.75,3.71v.02ZM114.52,44.99l-.14-2.17c-.84,1.49-2.42,2.41-4.13,2.39-2.36,0-3.73-1.42-3.73-2.99,0-2.93,4.54-3.71,7.73-4.86v-.41c0-1.87-1.28-2.53-2.94-2.53-1.26.03-2.5.39-3.58,1.04l-.4-.97c1.29-.73,2.75-1.11,4.23-1.11,1.67,0,3.41.51,4.07,1.68.33.66.46,1.41.39,2.14v3.64c-.08,1.39.03,2.79.34,4.15"/>
        <path id="Path_189" data-name="Path 189" class="cls-1" d="M118.83,33.61l3.83,9.1,3.49-9.1h1.37l-6.41,15.57h-1.74c1.02-1.28,1.87-2.69,2.51-4.19l-5.07-11.38"/>
        <path id="Path_190" data-name="Path 190" class="cls-1" d="M134.75,34.93c-.86-.32-1.77-.49-2.69-.51-.53,0-2.34.11-2.34,1.47,0,.69.44,1.1,2.15,2.07l.4.23c2.86,1.61,3.52,2.49,3.52,3.77,0,2.12-2,3.25-4.3,3.25-1.21,0-2.4-.29-3.47-.85l.43-.97c.92.5,1.94.76,2.98.78,1.57,0,2.66-.69,2.66-1.82,0-1.04-1.02-1.54-2.49-2.42l-.38-.23c-1.75-1.03-3.2-1.82-3.2-3.46s1.73-2.88,4.13-2.88c1.01,0,2,.2,2.94.57"/>
        <rect id="Rectangle_41" data-name="Rectangle 41" class="cls-1" x="137.31" y="33.61" width="1.77" height="11.38"/>
        <path id="Path_191" data-name="Path 191" class="cls-1" d="M142.41,42.09c.06,1.17,1.06,2.07,2.23,2.01.04,0,.08,0,.12,0,1.07,0,2.06-.53,2.67-1.41.61-1.14.87-2.43.74-3.71v-.62c-3.24,1.13-5.76,1.71-5.76,3.71v.02ZM148.44,44.99l-.15-2.17c-.83,1.49-2.42,2.41-4.13,2.39-2.37,0-3.73-1.42-3.73-2.99,0-2.93,4.54-3.71,7.73-4.86v-.41c0-1.87-1.28-2.53-2.94-2.53-1.26.03-2.5.39-3.58,1.04l-.4-.97c1.29-.73,2.75-1.11,4.24-1.11,1.67,0,3.41.51,4.07,1.68.32.66.46,1.41.38,2.14v3.64c-.08,1.39.04,2.79.34,4.15"/>
        <path id="Path_192" data-name="Path 192" class="cls-1" d="M9.83,33.59v1.08h-3.81v10.32h-2.2v-10.32H0v-1.08"/>
        <path id="Path_193" data-name="Path 193" class="cls-1" d="M12.79,41.99c-.02,1.01.77,1.85,1.78,1.87.05,0,.09,0,.14,0,.92-.01,1.75-.53,2.17-1.35.47-1.05.67-2.21.57-3.36v-.62c-3.14,1.16-4.66,1.83-4.66,3.44v.02ZM17.77,44.99l-.17-2.04c-.7,1.4-2.15,2.28-3.71,2.27-1.72.14-3.23-1.13-3.37-2.85,0-.06,0-.11,0-.17,0-2.58,3.15-3.49,6.95-4.8v-.36c0-1.65-.97-2.35-2.57-2.35-1.11.04-2.2.36-3.15.93l-.52-1.16c1.27-.68,2.68-1.05,4.11-1.08,1.12,0,3.18.28,3.98,1.7.33.7.45,1.47.37,2.23v3.52c-.04,1.4.07,2.79.34,4.16"/>
        <path id="Path_194" data-name="Path 194" class="cls-1" d="M31.74,44.99l-6.49-6.33,6.19-5.07h-1.91l-6.15,5.27v-5.27h-2.21v11.4h2.21v-5.49l5.42,5.49"/>
        <path id="Path_195" data-name="Path 195" class="cls-1" d="M34.1,41.99c-.02,1.01.77,1.85,1.78,1.87.05,0,.1,0,.14,0,.92-.01,1.75-.53,2.17-1.35.47-1.05.67-2.21.57-3.36v-.62c-3.15,1.16-4.66,1.83-4.66,3.44v.02ZM39.09,44.99l-.17-2.04c-.71,1.4-2.15,2.28-3.72,2.27-1.72.15-3.23-1.12-3.38-2.84,0-.06,0-.12-.01-.18,0-2.58,3.15-3.49,6.96-4.8v-.36c0-1.65-.97-2.35-2.57-2.35-1.11.04-2.2.36-3.15.93l-.53-1.16c1.27-.68,2.68-1.05,4.12-1.08,1.12,0,3.18.28,3.98,1.7.33.7.46,1.47.37,2.23v3.52c-.04,1.4.07,2.79.33,4.16"/>
        <path id="Path_196" data-name="Path 196" class="cls-1" d="M50.29,33.59v1.1h-5.58v4.13h5.24v1.1h-5.24v5.07h-2.21v-11.4"/>
        <path id="Path_197" data-name="Path 197" class="cls-1" d="M53.92,33.59v6.63c0,1.32.06,2.1.55,2.7.7.77,1.71,1.18,2.75,1.13.67,0,2.41-.16,3.03-1.6.25-.72.36-1.49.31-2.25v-6.61h1.35v6.92c0,.59.31,4.66-5.05,4.66-1.55,0-3.75-.45-4.65-2.13-.4-.77-.58-1.64-.51-2.51v-6.93"/>
        <path id="Path_198" data-name="Path 198" class="cls-1" d="M65.53,33.59v10.25h5.48v1.15h-7.69v-11.4"/>
        <path id="Path_199" data-name="Path 199" class="cls-1" d="M138.18,27.86l1.32,1.42-1.32,1.43-1.3-1.43,1.3-1.42Z"/>
        <path id="Path_200" data-name="Path 200" class="cls-1" d="M71.86,3.82l2.1-2.1.26-.26-.93-.93c-.33-.34-.79-.53-1.26-.53h-6.53v3.53c2.1-.55,4.31-.45,6.35.29"/>
        <path id="Path_201" data-name="Path 201" class="cls-1" d="M64.61,17.63l-.88-.87-1.49-1.49-.93.93c-.34.33-.53.79-.53,1.26v6.52h3.53c-.55-2.1-.45-4.31.3-6.35"/>
        <path id="Path_202" data-name="Path 202" class="cls-1" d="M85.67,11.07l2.36,2.37.93-.93c.34-.33.53-.79.53-1.27v-6.52h-3.53c.55,2.1.45,4.31-.29,6.35"/>
        <path id="Path_203" data-name="Path 203" class="cls-1" d="M78.42,24.88l-2.37,2.37.93.93c.34.34.79.52,1.27.53h6.52v-3.53c-2.1.55-4.31.45-6.35-.29"/>
        <path id="Path_204" data-name="Path 204" class="cls-1" d="M80.28,19.49h-3.01l-2.13,2.13-3.27,3.27c-2.04.74-4.26.84-6.36.28v3.53h6.52c.47,0,.93-.19,1.26-.53l4.37-4.37,6.18-6.18-2.36-2.36-1.22,1.22"/>
        <path id="Path_205" data-name="Path 205" class="cls-1" d="M70,19.49v-3.01l-1.95-1.95-.18-.18-3.27-3.26c-.74-2.04-.84-4.26-.29-6.36h-3.53v6.52c0,.47.19.93.52,1.27l4.38,4.38,6.18,6.18,2.36-2.36-1.22-1.22"/>
        <path id="Path_206" data-name="Path 206" class="cls-1" d="M70,9.21h3.01l2.13-2.13h0l3.27-3.27c2.04-.74,4.26-.84,6.36-.29V0h-6.52c-.48,0-.93.19-1.27.53l-4.37,4.37-6.18,6.18,2.36,2.36,1.22-1.22"/>
        <path id="Path_207" data-name="Path 207" class="cls-1" d="M88.96,16.19l-.93-.93-.75-.75-2.69-2.69-6.18-6.18-2.36,2.36,1.21,1.22h3.01v3.01l2.13,2.13,3.27,3.27c.74,2.04.84,4.26.29,6.36h3.53v-6.53c0-.47-.19-.93-.53-1.26"/>
        <path id="Path_208" data-name="Path 208" class="cls-1" d="M65.51,4.73c-.56,1.77-.56,3.67,0,5.45l5.44-5.44c-1.77-.56-3.67-.56-5.44,0"/>
        <path id="Path_209" data-name="Path 209" class="cls-1" d="M79.32,4.73l5.44,5.44c.56-1.77.57-3.67,0-5.44-1.77-.56-3.67-.56-5.45,0"/>
        <path id="Path_210" data-name="Path 210" class="cls-1" d="M65.51,23.98c1.77.56,3.67.56,5.45,0l-5.44-5.44c-.56,1.77-.56,3.67,0,5.44"/>
        <path id="Path_211" data-name="Path 211" class="cls-1" d="M84.76,23.98c.56-1.77.56-3.68,0-5.45l-5.44,5.44c1.77.56,3.67.57,5.44,0"/>
        <path id="Path_212" data-name="Path 212" class="cls-1" d="M78.99,15.95l1.6-1.6-1.6-1.59v-2.25h-2.25l-1.6-1.6-1.59,1.59h-2.25v2.25l-1.6,1.59,1.6,1.6v2.25h2.25l1.59,1.59,1.6-1.59h2.25"/>
      </g>
    </g>
  </g>
</svg>