<?xml version="1.0" encoding="UTF-8"?>
<svg id="Layer_2" data-name="Layer 2" xmlns="http://www.w3.org/2000/svg" xmlns:xlink="http://www.w3.org/1999/xlink" viewBox="0 0 129.1 49.4">
  <defs>
    <style>
      .cls-1 {
        fill: #ebebe8;
      }

      .cls-1, .cls-2 {
        stroke-width: 0px;
      }

      .cls-2 {
        fill: none;
      }

      .cls-3 {
        clip-path: url(#clippath);
      }
    </style>
    <clipPath id="clippath">
      <rect class="cls-2" width="129.1" height="49.4"/>
    </clipPath>
  </defs>
  <g id="Layer_1-2" data-name="Layer 1">
    <g class="cls-3">
      <g id="Group_79" data-name="Group 79">
        <path id="Path_92" data-name="Path 92" class="cls-1" d="M45.39,21.18h7.23v1.87c-.46-.77-1.32-1.2-2.21-1.1h-.59v10.13c-.04.45.09.89.37,1.24h-2.46c.32-.33.49-.78.47-1.24v-10.12h-.61c-.47-.02-.94.07-1.36.29-.35.17-.64.43-.84.76v-1.82Z"/>
        <path id="Path_93" data-name="Path 93" class="cls-1" d="M52.77,33.32c.28-.34.41-.77.37-1.21v-9.65c.05-.45-.07-.9-.32-1.28h1.8v5.32c.17-.17.27-.3.35-.37.63-.49,1.41-.76,2.21-.76.75-.03,1.49.24,2.04.76.4.4.44.61.44,1.77v4.21c-.04.45.12.89.44,1.21h-2c.1-.96.15-1.92.15-2.88v-2.19c0-.2,0-.41-.02-.61,0-.26-.07-.51-.18-.74-.32-.48-.88-.74-1.45-.69-1.03-.08-1.94.69-2.02,1.73,0,.09,0,.18,0,.27v3.89c-.06.44.08.89.39,1.21h-2.19Z"/>
        <path id="Path_94" data-name="Path 94" class="cls-1" d="M61.86,28.47c-.03.44-.05.66-.05.88,0,2.09.98,3.37,2.56,3.37.66,0,1.31-.2,1.85-.59.36-.21.67-.48.93-.81l-.3,1.23c-.17.12-.3.24-.4.29-.69.47-1.51.73-2.36.72-2.1.02-3.82-1.66-3.84-3.76,0-.12,0-.24.01-.36-.12-2.09,1.47-3.89,3.57-4.02.1,0,.19,0,.29,0,1.71-.1,3.18,1.21,3.28,2.92,0,.05,0,.1,0,.14h-5.55ZM61.96,27.92h2.83c.64,0,.76-.02.88-.19.08-.1.13-.24.12-.37-.1-.84-.84-1.45-1.68-1.38-1.1,0-2.02.84-2.14,1.94h0Z"/>
        <path id="Path_95" data-name="Path 95" class="cls-1" d="M45.77,40.54c.11-.12.17-.28.16-.44v-2.36c.01-.16-.04-.31-.13-.44.18,0,.31,0,.41,0,.15,0,.29,0,.43-.01.32-.02.44-.03.5-.03.47-.03.87.33.89.8,0,0,0,0,0,0,0,.03,0,.06,0,.09.03.53-.38.98-.92,1.01h-.08c-.2.02-.39-.06-.51-.21.08.01.17.02.25.02.44,0,.68-.26.68-.75,0-.44-.23-.7-.62-.7-.11,0-.22.01-.33.03v2.55c-.02.16.03.32.15.44h-.88Z"/>
        <path id="Path_96" data-name="Path 96" class="cls-1" d="M48.34,39.76c.27.47.48.64.79.64.24.02.45-.16.47-.39,0,0,0,0,0,0,0-.02,0-.04,0-.06,0-.12-.05-.25-.13-.34-.12-.11-.25-.19-.4-.25-.51-.27-.71-.5-.71-.85,0-.44.38-.75.96-.75.23,0,.46.04.67.12v.56c-.06-.12-.13-.22-.23-.31-.12-.1-.26-.16-.42-.16-.24-.02-.44.16-.46.4v.02c0,.19.11.32.42.48l.18.1c.2.09.38.21.52.38.09.12.14.27.13.43-.01.49-.42.88-.91.87-.03,0-.06,0-.09,0-.1,0-.2-.01-.3-.03-.17-.03-.34-.09-.49-.18v-.66Z"/>
        <path id="Path_97" data-name="Path 97" class="cls-1" d="M51.08,37.8s0,.09,0,.14c0,.11.04.21.09.31l.77,1.79.61-1.79c.02-.06.04-.12.04-.18,0-.08-.03-.15-.15-.26h.65c-.13.12-.23.27-.28.44l-.95,2.67c-.3.85-.65,1.23-1.12,1.23-.12,0-.25-.03-.36-.09v-.55c.09.17.26.27.44.27.42,0,.75-.46.75-1.04,0-.08,0-.15-.02-.23-.04-.19-.11-.37-.2-.55l-.77-1.73c-.08-.19-.22-.35-.4-.44h.89Z"/>
        <path id="Path_98" data-name="Path 98" class="cls-1" d="M55.44,38.59c-.3-.46-.55-.64-.9-.64-.52,0-.84.43-.84,1.14,0,.78.34,1.25.9,1.25.25,0,.5-.09.69-.25.11-.08.21-.17.3-.27l-.1.45c-.28.23-.63.35-.99.35-.74,0-1.35-.58-1.36-1.32,0-.04,0-.07,0-.11-.05-.75.52-1.39,1.27-1.43.05,0,.1,0,.14,0,.3,0,.6.06.88.19v.65Z"/>
        <path id="Path_99" data-name="Path 99" class="cls-1" d="M55.99,40.54c.1-.12.14-.27.13-.43v-3.4c.02-.16-.02-.32-.11-.45h.64v1.88c.06-.06.1-.11.12-.13.22-.17.5-.27.78-.27.27-.01.52.09.72.27.14.14.15.21.15.62v1.48c-.01.16.04.31.15.43h-.71c.04-.34.05-.68.06-1.01v-.77c0-.07,0-.14,0-.21,0-.09-.02-.18-.07-.26-.11-.17-.31-.26-.51-.24-.36-.03-.68.24-.71.61,0,.03,0,.07,0,.1v1.37c-.02.16.03.31.14.43h-.77Z"/>
        <path id="Path_100" data-name="Path 100" class="cls-1" d="M60.5,37.74c.79.03,1.41.69,1.39,1.49-.03.79-.69,1.41-1.49,1.39-.79-.03-1.41-.69-1.39-1.49.03-.75.63-1.36,1.39-1.39h.1M59.58,39.19c0,.72.41,1.23.93,1.23s.88-.46.88-1.13c0-.77-.4-1.34-.92-1.34s-.88.47-.88,1.16v.09Z"/>
        <path id="Path_101" data-name="Path 101" class="cls-1" d="M62.4,40.54c.1-.12.14-.28.13-.44v-3.38c0-.16-.03-.32-.12-.46h.63v3.85c-.02.15.02.3.11.43h-.75Z"/>
        <path id="Path_102" data-name="Path 102" class="cls-1" d="M65.09,37.74c.79.03,1.41.69,1.39,1.49-.03.79-.69,1.41-1.49,1.39-.79-.03-1.41-.69-1.39-1.49.03-.75.63-1.36,1.39-1.39h.1M64.17,39.19c0,.72.41,1.23.93,1.23s.88-.46.88-1.13c0-.77-.4-1.34-.93-1.34s-.88.47-.88,1.16v.09Z"/>
        <path id="Path_103" data-name="Path 103" class="cls-1" d="M67.65,40.55c-.38,0-.62-.15-.62-.41s.21-.42.69-.61c-.44-.03-.77-.4-.77-.83.02-.56.49-1,1.06-.98,0,0,0,0,0,0,.03,0,.05,0,.08,0,.12,0,.33.02.56.05.19.03.37.04.56.05.13,0,.26,0,.39-.02v.4c-.11-.06-.24-.11-.36-.14-.11-.03-.22-.05-.33-.04.18.14.29.35.27.58-.02.55-.49.98-1.04.96,0,0,0,0,0,0h-.07c-.36.11-.49.23-.49.4,0,.13.07.18.24.18h.26s.14,0,.26-.01c.15-.01.27-.02.36-.02.51,0,.84.26.84.65,0,.71-.93,1.39-1.89,1.39-.54,0-.87-.25-.87-.65.01-.26.15-.51.37-.66.17-.13.35-.22.55-.29h-.06ZM68.03,40.56c-.18.07-.34.18-.47.31-.13.13-.21.31-.21.5,0,.33.24.52.64.52.53.03,1-.34,1.1-.87,0-.32-.25-.48-.74-.48-.08,0-.15,0-.31.02h0ZM67.51,38.63c0,.45.24.72.59.72s.56-.27.56-.69c0-.44-.24-.74-.59-.74s-.56.25-.56.66v.05Z"/>
        <path id="Path_104" data-name="Path 104" class="cls-1" d="M69.83,40.54c.12-.11.18-.27.16-.43v-1.86c.02-.16-.02-.32-.11-.45h.62v2.31c-.03.15.02.31.12.43h-.79ZM70.24,36.59c.19,0,.34.14.34.33,0,.18-.15.33-.33.33s-.33-.15-.33-.33c0-.18.14-.33.32-.33"/>
        <path id="Path_105" data-name="Path 105" class="cls-1" d="M73.34,38.59c-.3-.46-.55-.64-.9-.64-.52,0-.84.43-.84,1.14,0,.78.34,1.25.9,1.25.25,0,.5-.09.69-.25.11-.08.21-.17.3-.27l-.1.45c-.28.23-.63.35-.99.35-.79-.05-1.39-.73-1.35-1.52.05-.75.66-1.33,1.41-1.35.3,0,.6.06.88.19v.65Z"/>
        <path id="Path_106" data-name="Path 106" class="cls-1" d="M75.37,38.44c0-.33-.1-.46-.37-.46-.22,0-.43.09-.58.24-.13.13-.25.27-.35.43v-.64c.07-.04.13-.07.17-.08.25-.11.53-.17.81-.17.22-.01.43.04.62.15.16.1.21.25.21.56v1.63c-.02.16.03.32.14.44h-.61l-.02-.32s-.09.08-.13.12c-.2.16-.45.26-.71.26-.37.03-.7-.24-.74-.61v-.02c0-.31.16-.49.67-.73l.32-.15c.19-.09.38-.19.56-.3v-.35ZM75.37,39.05l-.13.07-.27.13c-.18.08-.35.2-.49.33-.07.08-.11.19-.11.3,0,.23.2.42.44.41,0,0,0,0,0,0h.01c.35,0,.56-.24.56-.64v-.6Z"/>
        <path id="Path_107" data-name="Path 107" class="cls-1" d="M76.53,40.54c.1-.12.14-.28.13-.44v-3.38c.01-.16-.03-.32-.12-.46h.63v3.85c-.02.15.02.3.11.43h-.75Z"/>
        <path id="Path_108" data-name="Path 108" class="cls-1" d="M79.52,39.69c.06.19.16.36.3.49.13.14.31.21.5.21.32.02.6-.22.63-.54,0,0,0,0,0,0v-.06c0-.15-.06-.29-.16-.4-.07-.07-.14-.14-.22-.19-.05-.04-.15-.11-.28-.21-.17-.11-.33-.25-.46-.4-.14-.15-.21-.35-.21-.56.03-.47.43-.83.9-.8,0,0,0,0,0,0h.04c.1,0,.21.01.31.04l.27.07s.07.01.1.01c.04,0,.08-.02.12-.04v.72c-.07-.32-.36-.56-.69-.56-.25-.02-.46.16-.48.41,0,0,0,0,0,0v.05c0,.22.15.42.56.71l.28.19c.3.16.49.48.5.82-.03.58-.52,1.02-1.1.99h-.03c-.12,0-.24-.01-.36-.04-.18-.03-.35-.1-.5-.2v-.71Z"/>
        <path id="Path_109" data-name="Path 109" class="cls-1" d="M82.46,38.83c-.01.15-.02.23-.02.31,0,.74.34,1.19.9,1.19.23,0,.46-.07.65-.21.13-.07.24-.17.33-.29l-.11.43c-.06.04-.11.08-.14.1-.24.17-.53.26-.83.25-.79-.05-1.4-.72-1.35-1.52.04-.73.63-1.32,1.37-1.35.6-.03,1.12.43,1.16,1.03v.05h-1.95ZM82.5,38.63h1c.23,0,.27,0,.31-.07.03-.04.04-.08.04-.13-.04-.29-.3-.51-.59-.49-.39,0-.71.3-.75.68"/>
        <path id="Path_110" data-name="Path 110" class="cls-1" d="M84.86,40.54c.1-.12.15-.27.14-.43v-1.86c0-.16-.03-.32-.12-.45h.63v.39c.09-.13.22-.24.36-.31.14-.07.29-.1.45-.11v.71c-.12-.23-.22-.29-.38-.29-.28,0-.43.22-.43.6v1.32c-.03.15.01.31.11.43h-.76Z"/>
        <path id="Path_111" data-name="Path 111" class="cls-1" d="M87.04,37.8c0,.05-.02.11-.02.16,0,.1.03.19.07.28l.61,1.68.61-1.68c.03-.06.04-.13.05-.2,0-.08-.04-.14-.15-.25h.67c-.15.12-.26.28-.32.46l-.83,2.29h-.34l-.84-2.29c-.06-.18-.17-.33-.31-.45h.82Z"/>
        <path id="Path_112" data-name="Path 112" class="cls-1" d="M89.02,40.54c.12-.11.18-.27.16-.43v-1.86c.02-.16-.02-.32-.11-.45h.62v2.31c-.03.15.02.31.12.43h-.79ZM89.44,36.59c.19,0,.34.14.34.33,0,.18-.16.32-.34.32h0c-.18,0-.32-.14-.33-.32,0-.18.14-.32.32-.33"/>
        <path id="Path_113" data-name="Path 113" class="cls-1" d="M92.52,38.59c-.3-.46-.55-.64-.9-.64-.52,0-.84.43-.84,1.14,0,.78.34,1.25.9,1.25.25,0,.5-.09.69-.25.11-.08.21-.17.3-.27l-.1.45c-.28.23-.63.35-.99.35-.74,0-1.35-.58-1.36-1.32v-.11c-.05-.75.52-1.39,1.27-1.43.05,0,.1,0,.14,0,.3,0,.6.06.88.19v.65Z"/>
        <path id="Path_114" data-name="Path 114" class="cls-1" d="M93.59,38.83c-.01.15-.02.23-.02.31,0,.74.34,1.19.9,1.19.23,0,.46-.07.65-.21.13-.07.24-.17.33-.29l-.11.43c-.06.04-.11.08-.14.1-.24.17-.53.26-.83.25-.79-.05-1.4-.72-1.35-1.52.04-.73.63-1.32,1.37-1.35.6-.03,1.12.43,1.16,1.03v.05h-1.95ZM93.62,38.63h1c.23,0,.27,0,.31-.07.03-.04.04-.08.04-.13-.04-.29-.3-.51-.59-.49-.39,0-.71.3-.75.68h0Z"/>
        <path id="Path_115" data-name="Path 115" class="cls-1" d="M95.95,39.76c.27.47.48.64.79.64.24.02.45-.16.47-.4,0,0,0,0,0,0,0-.02,0-.04,0-.06,0-.12-.05-.25-.13-.34-.12-.11-.25-.19-.4-.25-.51-.27-.71-.5-.71-.85,0-.44.38-.75.96-.75.23,0,.46.04.67.12v.56c-.06-.12-.14-.23-.23-.31-.12-.1-.26-.16-.41-.16-.24-.02-.44.16-.46.4v.02c0,.19.11.32.42.48l.18.1c.2.09.38.21.52.38.09.12.14.27.13.43-.01.49-.42.88-.91.87,0,0,0,0,0,0-.03,0-.06,0-.09,0-.1,0-.2-.01-.3-.03-.17-.03-.34-.09-.49-.18v-.65Z"/>
        <path id="Path_116" data-name="Path 116" class="cls-1" d="M101.44,38.44c0-.33-.1-.46-.37-.46-.22,0-.43.09-.58.24-.13.13-.25.27-.34.43v-.64c.07-.04.13-.07.17-.08.25-.11.53-.17.81-.17.22-.01.43.04.62.15.16.1.21.25.21.56v1.63c-.02.16.03.32.14.44h-.61l-.02-.32s-.09.08-.13.12c-.2.16-.45.26-.71.26-.37.03-.7-.24-.74-.61v-.02c0-.31.16-.49.67-.73l.32-.15c.19-.09.38-.19.56-.3v-.35ZM101.44,39.05l-.13.07-.27.13c-.18.08-.35.2-.49.33-.07.08-.11.19-.11.3,0,.23.2.42.44.41h.01c.36,0,.56-.24.56-.64v-.6Z"/>
        <path id="Path_117" data-name="Path 117" class="cls-1" d="M102.6,40.54c.1-.12.15-.28.14-.44v-1.85c.01-.16-.03-.32-.12-.46h.63v.32s.09-.09.14-.12c.21-.16.47-.25.73-.24.25-.01.5.07.71.22.16.14.19.25.19.64v1.5c-.02.16.03.31.14.43h-.69c.03-.26.05-.51.05-.77v-.98c.02-.17,0-.34-.08-.5-.11-.17-.3-.26-.49-.24-.11,0-.21.02-.32.06-.08.04-.16.09-.23.15-.12.12-.16.25-.16.55v1.31c-.02.15.02.31.12.43h-.77Z"/>
        <path id="Path_118" data-name="Path 118" class="cls-1" d="M107.56,37.83v-1.1c0-.17-.04-.33-.13-.47h.64v3.84c-.02.16.03.32.13.44h-.64v-.35c-.03.05-.07.1-.12.14-.19.19-.46.29-.73.28-.63-.01-1.13-.53-1.12-1.16,0-.03,0-.07,0-.1-.05-.8.56-1.48,1.35-1.53.07,0,.15,0,.22,0h.38ZM107.57,39.52v-.83c0-.46-.14-.66-.46-.66-.57,0-.96.5-.96,1.22,0,.66.31,1.09.78,1.09.41,0,.64-.29.64-.82"/>
        <path id="Path_119" data-name="Path 119" class="cls-1" d="M110.22,37.29h2.54v.66c-.16-.27-.47-.42-.78-.38h-.21v2.54c-.02.16.03.32.13.44h-.87c.11-.12.17-.28.16-.44v-2.54h-.21c-.17,0-.33.03-.48.1-.12.06-.23.15-.3.27v-.64Z"/>
        <path id="Path_120" data-name="Path 120" class="cls-1" d="M112.74,40.54c.1-.12.15-.27.14-.43v-1.86c0-.16-.03-.32-.12-.45h.63v.39c.09-.13.22-.24.36-.31.14-.07.29-.1.45-.11v.71c-.12-.23-.22-.29-.38-.29-.28,0-.43.22-.43.6v1.32c-.02.15.02.31.11.43h-.77Z"/>
        <path id="Path_121" data-name="Path 121" class="cls-1" d="M115.9,38.44c0-.33-.1-.46-.37-.46-.22,0-.43.09-.58.24-.13.13-.25.27-.34.43v-.64c.07-.04.13-.07.17-.08.25-.11.53-.17.81-.17.22-.01.43.04.62.15.16.1.21.25.21.56v1.63c-.02.16.03.32.14.44h-.61l-.02-.32s-.09.08-.13.12c-.2.16-.45.26-.71.26-.37.03-.71-.24-.74-.61v-.02c0-.31.16-.49.67-.73l.32-.15c.19-.09.38-.19.56-.3v-.35ZM115.9,39.05l-.13.07-.27.13c-.18.08-.35.2-.49.33-.07.08-.11.19-.11.3,0,.23.2.42.44.41h.01c.36,0,.56-.24.56-.64v-.6Z"/>
        <path id="Path_122" data-name="Path 122" class="cls-1" d="M117.02,40.54c.12-.11.18-.27.16-.43v-1.86c.02-.16-.02-.32-.11-.45h.62v2.31c-.03.15.02.31.12.43h-.79ZM117.43,36.59c.19,0,.34.14.35.33,0,.18-.16.32-.34.32h0c-.18,0-.33-.14-.33-.32h0c0-.18.14-.33.32-.33"/>
        <path id="Path_123" data-name="Path 123" class="cls-1" d="M118.27,40.54c.1-.12.15-.28.14-.44v-1.85c.01-.16-.03-.32-.12-.46h.63v.32s.09-.09.14-.12c.21-.17.47-.25.73-.24.25,0,.5.07.71.22.16.14.19.25.19.64v1.5c-.02.16.03.31.14.43h-.69c.03-.26.05-.51.05-.77v-.98c.02-.17,0-.34-.08-.5-.11-.17-.3-.26-.49-.24-.11,0-.21.02-.31.06-.09.04-.16.09-.23.15-.12.12-.16.25-.16.55v1.31c-.02.15.02.31.12.43h-.77Z"/>
        <path id="Path_124" data-name="Path 124" class="cls-1" d="M121.28,40.54c.12-.11.18-.27.16-.43v-1.86c.02-.16-.02-.32-.11-.45h.62v2.31c-.03.15.02.31.12.43h-.79ZM121.7,36.59c.19,0,.34.14.34.33,0,.18-.15.33-.33.33s-.33-.15-.33-.33c0-.18.14-.33.32-.33"/>
        <path id="Path_125" data-name="Path 125" class="cls-1" d="M122.54,40.54c.1-.12.15-.28.14-.44v-1.85c.01-.16-.03-.32-.12-.46h.63v.32s.09-.09.14-.12c.21-.16.47-.25.73-.24.25-.01.5.07.71.22.16.14.19.25.19.64v1.5c-.02.16.03.31.14.43h-.69c.03-.26.05-.51.05-.77v-.98c.02-.17,0-.34-.08-.5-.11-.17-.3-.26-.49-.24-.11,0-.21.02-.31.06-.09.03-.16.09-.23.15-.12.12-.16.25-.16.55v1.31c-.02.15.02.31.12.43h-.76Z"/>
        <path id="Path_126" data-name="Path 126" class="cls-1" d="M126.26,40.55c-.39,0-.62-.15-.62-.41s.21-.42.69-.61c-.43-.03-.77-.4-.77-.83.02-.56.5-1,1.06-.98,0,0,0,0,0,0,.03,0,.05,0,.08,0,.12,0,.33.02.56.05.19.03.37.04.56.05.13,0,.26,0,.39-.02v.4c-.11-.06-.24-.11-.36-.14-.11-.03-.22-.05-.33-.04.18.14.29.35.27.58-.02.55-.49.98-1.04.96,0,0,0,0,0,0h-.07c-.36.11-.49.23-.49.4,0,.13.07.18.24.18h.26s.14,0,.26-.01c.15-.01.27-.02.36-.02.51,0,.84.26.84.65,0,.71-.93,1.39-1.89,1.39-.54,0-.87-.25-.87-.65.01-.26.15-.51.37-.66.17-.13.35-.22.55-.29h-.06ZM126.64,40.56c-.18.07-.34.18-.48.31-.13.13-.21.31-.21.5,0,.33.24.52.64.52.53.03,1-.34,1.1-.87,0-.32-.25-.48-.74-.48-.08,0-.16,0-.32.02h0ZM126.12,38.63c0,.45.24.72.59.72s.56-.27.56-.69c0-.44-.24-.74-.59-.74s-.56.25-.56.66v.05Z"/>
        <path id="Path_127" data-name="Path 127" class="cls-1" d="M71.7,33.13c.7-.7,1.09-1.66,1.08-2.66l.43-14.36.04-.18c.03-.9-.27-1.77-.82-2.48h4.52l4.99,14.29,4.85-14.28h4.85c-.69.65-1.05,1.57-1,2.51v.14l.5,14.36c-.03.98.32,1.93.97,2.66h-5.38c.72-.69,1.07-1.67.97-2.66l-.36-13.35-5.42,16.01h-1.65l-5.57-15.76-.25,13.1c-.15.99.22,1.99.97,2.66h-3.7Z"/>
        <path id="Path_128" data-name="Path 128" class="cls-1" d="M92.52,33.13c.72-.66,1.09-1.61,1-2.58v-11.27c.15-.96-.1-1.95-.68-2.73h3.77v14c-.16.93.11,1.87.72,2.58h-4.81Z"/>
        <path id="Path_129" data-name="Path 129" class="cls-1" d="M95.03,7.34c1.12-.02,2.05.85,2.08,1.97.02,1.11-.87,2.03-1.97,2.04s-2.03-.87-2.04-1.97c-.02-1.1.84-2,1.94-2.04"/>
        <path id="Path_130" data-name="Path 130" class="cls-1" d="M97.76,33.13c.6-.75.91-1.7.86-2.66l-.04-11.16c.1-.97-.14-1.95-.68-2.76h3.84v1.93c.27-.27.56-.52.86-.75,1.25-1,2.82-1.52,4.41-1.47,1.54-.06,3.05.42,4.27,1.36.97.86,1.15,1.51,1.15,3.84v9.08c-.14.94.17,1.9.82,2.58h-4.2c.21-1.55.31-3.11.32-4.67v-5.92c.12-1.03-.04-2.07-.47-3.02-.64-1.01-1.79-1.56-2.98-1.44-.65.01-1.29.12-1.9.32-.52.21-.99.52-1.4.9-.75.76-.97,1.51-.97,3.34v7.9c-.12.92.14,1.86.72,2.58h-4.63Z"/>
        <path id="Path_131" data-name="Path 131" class="cls-1" d="M125.23,16.72v-6.64c.05-1.01-.22-2-.79-2.84h3.88v23.22c-.13.96.15,1.93.79,2.66h-3.88v-2.12c-.2.32-.44.61-.72.86-1.17,1.15-2.77,1.76-4.41,1.69-3.95,0-6.71-3.12-6.71-7.65,0-5.67,3.7-9.23,9.51-9.23h1.36l.97.04ZM125.26,26.95v-5.03c0-2.8-.82-3.99-2.8-3.99-3.41,0-5.78,3.02-5.78,7.36,0,4.02,1.87,6.6,4.7,6.6,2.48,0,3.88-1.72,3.88-4.95h0Z"/>
        <path id="Path_132" data-name="Path 132" class="cls-1" d="M25.31,9.42c.2,1.22,1.36,2.04,2.58,1.84,1.22-.2,2.04-1.36,1.84-2.58-.2-1.22-1.36-2.04-2.58-1.84,0,0,0,0,0,0h0c-1.22.2-2.04,1.36-1.83,2.57h0"/>
        <path id="Path_133" data-name="Path 133" class="cls-1" d="M29.32,16.77c-.88.15-1.47.98-1.32,1.85s.98,1.47,1.85,1.32,1.47-.98,1.32-1.85c0,0,0,0,0,0h0c-.15-.88-.98-1.47-1.85-1.32"/>
        <path id="Path_134" data-name="Path 134" class="cls-1" d="M32.89,15.56c-.86.14-1.45.96-1.3,1.83.14.86.96,1.45,1.83,1.3.86-.14,1.45-.96,1.3-1.83,0,0,0,0,0,0h0c-.15-.86-.96-1.45-1.83-1.3,0,0,0,0,0,0h0"/>
        <path id="Path_135" data-name="Path 135" class="cls-1" d="M31.98,9.21c-1.05.18-1.76,1.17-1.58,2.22.18,1.05,1.17,1.76,2.22,1.58,1.05-.18,1.76-1.17,1.58-2.22,0,0,0,0,0,0-.18-1.05-1.17-1.75-2.22-1.58"/>
        <path id="Path_136" data-name="Path 136" class="cls-1" d="M35.98,9.99c-.84.14-1.4.93-1.26,1.77s.93,1.4,1.77,1.26c.83-.14,1.4-.93,1.26-1.77-.14-.84-.93-1.4-1.77-1.26,0,0,0,0,0,0h0"/>
        <path id="Path_137" data-name="Path 137" class="cls-1" d="M32.03,8.42c.83-.14,1.4-.93,1.26-1.77-.14-.83-.93-1.4-1.77-1.26-.83.14-1.4.93-1.26,1.76.14.84.93,1.4,1.77,1.26,0,0,0,0,0,0h0"/>
        <path id="Path_138" data-name="Path 138" class="cls-1" d="M37.7,1.94c-.65.11-1.09.73-.98,1.38.11.65.73,1.09,1.38.98.65-.11,1.09-.73.98-1.38-.11-.65-.73-1.1-1.38-.99,0,0,0,0,0,0h0"/>
        <path id="Path_139" data-name="Path 139" class="cls-1" d="M35.15,18.14c-.69.12-1.16.78-1.04,1.47s.78,1.16,1.47,1.04c.69-.12,1.16-.77,1.04-1.47-.12-.69-.78-1.16-1.47-1.04"/>
        <path id="Path_140" data-name="Path 140" class="cls-1" d="M36.17,15.39c-.53.09-.89.59-.8,1.12.09.53.59.89,1.12.8.53-.09.89-.59.8-1.12h0c-.09-.53-.59-.89-1.11-.8,0,0,0,0,0,0Z"/>
        <path id="Path_141" data-name="Path 141" class="cls-1" d="M42.44.57c-.06-.37-.42-.63-.79-.56s-.63.42-.56.79c.06.37.42.63.79.56.37-.06.63-.42.56-.79h0"/>
        <path id="Path_142" data-name="Path 142" class="cls-1" d="M35.73,14.12c-.12-.73-.82-1.23-1.55-1.11-.73.12-1.23.82-1.11,1.55s.82,1.23,1.55,1.11c0,0,0,0,0,0h0c.73-.13,1.22-.82,1.1-1.55"/>
        <path id="Path_143" data-name="Path 143" class="cls-1" d="M35.57,5.34c-1.04.18-1.75,1.17-1.57,2.21.18,1.04,1.17,1.75,2.21,1.57,1.04-.18,1.75-1.16,1.57-2.21-.18-1.04-1.16-1.75-2.21-1.57,0,0,0,0,0,0h0"/>
        <path id="Path_144" data-name="Path 144" class="cls-1" d="M35.39,22.21c-.01-1.05-.87-1.89-1.91-1.88h-.03c.1-.7-.39-1.35-1.09-1.45-.7-.1-1.35.39-1.45,1.09-.02.11-.02.22,0,.33-.86-.24-1.78-.03-2.44.57-.33-.79-1.09-1.3-1.94-1.31.77-.78,1.02-1.93.67-2.96,1.32.55,2.84-.07,3.39-1.39s-.07-2.84-1.39-3.39c-1.32-.55-2.84.07-3.39,1.39-.19.45-.25.95-.17,1.44.01.09.03.17.06.26-.37-.18-.76-.28-1.17-.29v-.18c.97-.44,1.39-1.57.96-2.54-.27-.6-.83-1.02-1.49-1.11.34-.86.13-1.85-.55-2.49,1.53.04,2.81-1.17,2.85-2.7.04-1.53-1.17-2.81-2.7-2.85-1.53-.04-2.81,1.17-2.85,2.7-.02.85.35,1.67,1.01,2.21-.09,0-.18.01-.27.03-.32.05-.63.18-.9.36,0-.02,0-.04,0-.05-.07-.44-.27-.86-.55-1.2.49-1.33-.19-2.81-1.52-3.3-.33-.12-.67-.17-1.02-.16h0c-4.46.42-6.19,1.37-8.37,3.03-2.46,1.87-2.79,2.51-2.79,2.51-1.6,2.05-2.6,4.51-2.88,7.1-.04,1.54.13,3.07.5,4.57.17.99-3.09,4.48-3.79,5.73s.98,2.43,2.04,2.7c1.06.27,1,1.03.76,1.64-.17.51-.28,1.04-.33,1.57.3.35.61.67.95.97,0,0-.33.06-.42.86,0,0,1.12.59,1.14,1.39.02.8-.11,1.59-.4,2.33-.21.9.08,1.84.76,2.47,1.12.67,2.39,1.04,3.69,1.08,1.74.13,3.36.91,4.56,2.17.55.82,1.03,1.69,1.45,2.58.51,1.04.93.86,1.73,2.28.36.72,1.13,1.14,1.93,1.05h.04c.32-.04.65-.08.97-.14,6.51-1.09,12.09-5.24,15.02-11.15,0,0,0-.01,0-.02.16-.35.22-.74.15-1.12,0-.06-.02-.12-.04-.17,0-.01,0-.03,0-.04-.59-2.02-.85-4.12-.77-6.22.34-1.35.76-2.68,1.26-3.98h0c.06-.17.1-.34.12-.52.37-1.24.58-2.52.62-3.81"/>
      </g>
    </g>
  </g>
</svg>