<?xml version="1.0" encoding="UTF-8"?>
<svg id="Layer_2" data-name="Layer 2" xmlns="http://www.w3.org/2000/svg" xmlns:xlink="http://www.w3.org/1999/xlink" viewBox="0 0 78.33 48.85">
  <defs>
    <style>
      .cls-1 {
        fill: #ebebe8;
      }

      .cls-1, .cls-2, .cls-3 {
        stroke-width: 0px;
      }

      .cls-2 {
        fill: none;
      }

      .cls-4 {
        clip-path: url(#clippath);
      }

      .cls-3 {
        fill: #191919;
      }
    </style>
    <clipPath id="clippath">
      <rect class="cls-2" width="78.33" height="48.85"/>
    </clipPath>
  </defs>
  <g id="Layer_1-2" data-name="Layer 1">
    <g id="Group_41" data-name="Group 41">
      <g class="cls-4">
        <g id="Group_40" data-name="Group 40">
          <path id="Path_34" data-name="Path 34" class="cls-1" d="M22.54,0h0l-2.03.06c-.19,0-.38.03-.57.09l-.61.21c-.27.1-.5.27-.68.5-.25.29-.46.62-.61.96-.29.68-.61,1.36-.85,2.05l-.11.29-1.48,3.59c-.04.1-.08.19-.11.29-.28.75-.57,1.49-.89,2.26l-.67,1.58c-.58,1.45-1.13,2.91-1.73,4.33-.28.66-.55,1.32-.83,1.98-.19.48-.4.94-.58,1.41-.32.78-.61,1.57-.94,2.34s-.69,1.67-1.04,2.51-.74,1.83-1.13,2.73l-.65,1.64-.14.32-.96,2.45c-.09.24-.15.48-.18.74-.04.24,0,.49.08.72.08.28.29.51.57.61.49.18,1,.27,1.52.26h1.56c.14.02.28.02.42,0,.31-.07.61-.14.88-.23.42-.13.79-.4,1.04-.77.16-.21.29-.44.4-.69.16-.4.32-.78.46-1.13s.31-.81.48-1.22.35-.81.51-1.22.34-.85.51-1.28c.06-.15.12-.31.17-.46.2-.53.41-1.13.62-1.61s.31-.8.46-1.22c.02-.11.06-.22.12-.32.17-.34.5-.57.88-.61h12.13c.22,0,.43.02.65.06.19.05.36.14.5.28.15.15.25.32.32.52l.71,1.82c.23.61.46,1.22.7,1.83l.54,1.44c.06.11.09.23.15.35.32.67.6,1.35.85,2.05.11.29.24.59.37.88.32.69.91,1.22,1.64,1.45.14.06.29.11.44.15.11.03.22.06.34.07.54.03,1.07.03,1.61,0,.53-.04,1.06-.15,1.57-.32l.18-.07c.46-.22.71-.72.61-1.22-.08-.39-.19-.76-.34-1.13-.14-.36-.28-.71-.43-1.06-.51-1.22-1.02-2.44-1.48-3.7l-.16-.4-.31-.7-.76-1.83-.37-.92c-.23-.61-.45-1.22-.71-1.83-.36-.84-.69-1.67-1.03-2.51l-.95-2.33c-.17-.41-.35-.81-.51-1.22s-.32-.8-.48-1.22-.23-.51-.33-.78c-.34-.93-.7-1.86-1.13-2.76-.11-.23-.2-.44-.29-.67-.32-.76-.61-1.53-.93-2.26v-.11l-.61-1.64c-.19-.48-.41-.96-.61-1.44-.31-.74-.61-1.47-.89-2.21-.2-.47-.55-.86-.98-1.13-.35-.21-.73-.37-1.13-.49h-1.14c-.54-.08-1.09-.12-1.63-.12M43.36,16.89h0v14.71c0,.45.11.88.32,1.28.17.36.48.64.86.77.28.11.61.19.88.28h.18c.43.05.87.05,1.3,0,.09.01.18.01.26,0l.76-.25c.23-.07.45-.21.61-.38.4-.37.64-.87.67-1.41v-11.79c0-.27.05-.54.15-.79.09-.27.33-.47.61-.52.18-.05.38-.07.57-.06h11.96c.72,0,1.46,0,2.18-.06.29-.01.58-.06.86-.15.56-.13,1-.57,1.13-1.13.06-.18.09-.37.08-.57v-1.28c0-.17-.02-.34-.07-.5-.07-.41-.34-.76-.71-.94-.36-.17-.74-.29-1.13-.35h-14.7c-.46.01-.84-.35-.85-.8h0v-6.44c0-.15.03-.31.08-.45.08-.38.4-.66.79-.68h17.79c.33-.02.66-.07.98-.16.36-.1.66-.36.81-.7.16-.29.25-.62.26-.95-.02-.24-.02-.48,0-.72.03-.35.03-.71,0-1.06-.04-.41-.2-.8-.44-1.13-.06-.08-.13-.14-.2-.2-.32-.27-.72-.42-1.14-.41h-.92c-.47-.03-.94-.03-1.41,0h-17.11c-1.13,0-2.26,0-3.39.07-.15,0-.31.02-.45.07-.68.21-1.22.73-1.44,1.41-.08.2-.12.4-.11.61v14.73l-.04-.05Z"/>
          <path id="Path_35" data-name="Path 35" class="cls-3" d="M22.78,18.11h-3.2c-.22,0-.43-.03-.65-.06h-.15c-.31-.09-.5-.39-.46-.71.02-.23.08-.45.16-.67.21-.54.42-1.13.61-1.63.29-.71.61-1.41.91-2.12l.09-.21.83-2c.28-.68.53-1.36.8-2.04.1-.23.2-.46.32-.69.07-.14.16-.26.27-.36.23-.18.55-.18.78,0,.18.16.33.36.43.58.11.28.25.57.36.84.51,1.22,1.02,2.44,1.51,3.67.2.49.38.97.57,1.47.07.18.14.36.23.53l.78,1.83c.1.22.17.45.2.69.06.31-.07.63-.33.81-.14.08-.3.13-.46.15h-3.59v-.08Z"/>
          <path id="Path_36" data-name="Path 36" class="cls-1" d="M0,47.53l1.6-4.33h.52l1.6,4.33h-.66l-1.22-3.51-1.21,3.51h-.62ZM.74,45.95h2.26v.61H.74v-.61Z"/>
          <path id="Path_37" data-name="Path 37" class="cls-1" d="M4.37,43.24h.61v4.29h-.61v-4.29ZM4.67,43.19h2.44v.57h-2.44v-.57ZM4.67,45.69v-.55h2.12v.61l-2.12-.06Z"/>
          <path id="Path_38" data-name="Path 38" class="cls-1" d="M10.73,47.63c-.21,0-.42-.04-.61-.1-.18-.04-.36-.1-.53-.18-.16-.08-.31-.18-.45-.29l.38-.46c.16.14.34.25.54.32.21.08.42.12.65.11.26.01.51-.05.74-.18.16-.11.26-.3.25-.5.01-.14-.03-.27-.12-.37-.09-.09-.21-.16-.34-.19-.16-.05-.31-.08-.48-.1-.16-.02-.33-.06-.49-.1-.16-.04-.31-.1-.45-.18-.14-.08-.25-.19-.33-.33-.25-.52-.14-1.15.27-1.55.33-.24.73-.36,1.13-.34.23,0,.46.04.68.11.23.08.45.19.65.34l-.35.49c-.15-.12-.31-.22-.49-.28-.16-.06-.33-.09-.5-.09-.24-.02-.49.05-.69.18-.16.12-.25.3-.25.5,0,.14.05.27.15.37.11.09.24.16.37.19l.5.11c.16.03.33.06.49.11.15.04.3.1.43.18.13.09.23.21.31.35.23.51.11,1.11-.29,1.51-.33.25-.74.39-1.15.4"/>
          <path id="Path_39" data-name="Path 39" class="cls-1" d="M13.13,43.24h.61v4.29h-.61v-4.29ZM15,47.52v-1.83c0-.18-.05-.37-.17-.51-.13-.12-.3-.19-.48-.18-.16,0-.32.07-.44.18-.11.12-.17.28-.16.44l-.06-.61c.08-.18.21-.33.37-.43.15-.1.33-.15.51-.15.3-.02.59.1.78.33.2.27.3.6.27.93v1.84h-.64Z"/>
          <path id="Path_40" data-name="Path 40" class="cls-1" d="M16.53,43.23h.61v.61h-.61v-.61ZM16.53,47.57v-3.1h.61v3.05l-.61.05Z"/>
          <path id="Path_41" data-name="Path 41" class="cls-1" d="M18.11,44.47h.61v4.38h-.61v-4.38ZM19.49,47.63c-.18,0-.35-.05-.5-.14-.14-.1-.26-.24-.33-.4v-.69c0,.12.02.23.08.34.04.09.11.17.2.21.1.05.21.08.33.08.17,0,.34-.07.46-.19.12-.14.18-.33.17-.52v-.63c.01-.19-.05-.38-.17-.53-.12-.12-.29-.19-.46-.19-.11,0-.23.02-.33.08-.09.04-.16.11-.2.2-.05.1-.08.22-.08.34l-.06-.61c.22-.49.8-.71,1.29-.48.13.06.25.15.34.26.2.26.31.59.28.93v.71c.02.33-.08.66-.28.92-.19.24-.48.37-.79.36l.04-.04Z"/>
          <path id="Path_42" data-name="Path 42" class="cls-1" d="M24.89,46.09l1.27-2.85h.57v4.29h-.59v-3.05l-1.13,2.44h-.42l-.99-2.38v2.99h-.57v-4.29h.57l1.3,2.85Z"/>
          <path id="Path_43" data-name="Path 43" class="cls-1" d="M28.77,47.63c-.3.03-.6-.06-.85-.24-.37-.4-.37-1.02,0-1.41.23-.16.5-.24.78-.21h.88v.49h-.94c-.14,0-.27.05-.36.15-.08.09-.12.21-.11.33,0,.13.05.26.16.34.14.09.31.13.48.11.18.01.35-.01.52-.07.1-.03.17-.13.17-.24l.07.44c-.04.08-.09.15-.15.21-.08.05-.17.09-.27.11-.12.01-.25.01-.37-.01M29.53,47.63v-2.02c.03-.32-.19-.6-.51-.64h-.11c-.12,0-.24.02-.36.06-.12.04-.22.09-.32.17l-.44-.31c.12-.15.28-.26.46-.33.19-.08.4-.12.61-.11.33-.02.65.08.91.29.22.23.33.53.32.85v1.95l-.56.1Z"/>
          <path id="Path_44" data-name="Path 44" class="cls-1" d="M31.02,44.47h.67v3.06h-.67v-3.06ZM32.89,47.53v-1.84c.01-.19-.05-.37-.17-.51-.27-.23-.67-.23-.94,0-.11.12-.17.29-.16.45l-.07-.61c.08-.18.21-.33.37-.44.42-.25.96-.18,1.3.18.19.27.29.6.27.93v1.83h-.61Z"/>
          <path id="Path_45" data-name="Path 45" class="cls-1" d="M35.43,47.63c-.3.02-.6-.06-.85-.24-.36-.4-.36-1.01,0-1.41.23-.16.51-.24.79-.21h.84v.49h-.92c-.13-.01-.25.02-.35.1-.08.09-.13.21-.12.33,0,.13.05.26.16.34.14.09.31.13.48.11.18.01.35-.01.52-.07.1-.03.17-.13.17-.24l.07.44c-.05.08-.12.15-.2.2-.08.06-.17.09-.27.11-.1.03-.2.04-.31.05M36.19,47.63v-2.02c.01-.17-.05-.34-.16-.48-.12-.12-.29-.18-.46-.17-.12,0-.24.02-.35.06-.12.03-.23.09-.33.17l-.43-.31c.12-.15.28-.26.46-.33.19-.08.4-.12.61-.11.33-.02.65.08.91.29.22.23.33.53.32.85v1.95l-.57.1Z"/>
          <path id="Path_46" data-name="Path 46" class="cls-1" d="M38.68,47.63c-.3.02-.59-.1-.79-.32-.2-.27-.3-.6-.27-.94v-.69c-.02-.33.07-.67.26-.94.34-.34.86-.41,1.28-.17.15.1.28.24.36.41l-.06.61c0-.12-.02-.23-.07-.34-.05-.09-.12-.17-.21-.21-.1-.05-.21-.08-.33-.08-.17,0-.34.07-.46.19-.12.15-.18.34-.17.53v.71c-.01.19.05.38.17.52.21.2.53.25.79.11.09-.05.17-.13.21-.23.05-.11.07-.22.07-.34v.66c-.06.15-.16.28-.28.37-.15.12-.34.19-.53.18l.03-.04ZM38.68,48.85c-.21,0-.42-.04-.61-.14-.17-.08-.32-.21-.43-.36l.41-.37c.08.11.18.2.29.26.1.06.22.09.34.09.37.03.69-.23.74-.6v-3.26h.61v3.06c.02.37-.1.73-.35,1-.26.23-.6.35-.94.33h-.06Z"/>
          <path id="Path_47" data-name="Path 47" class="cls-1" d="M42.25,47.63c-.37.02-.73-.11-1-.36-.26-.27-.39-.64-.36-1.02v-.35c-.03-.41.09-.81.34-1.13.25-.26.6-.4.96-.37.36-.02.7.14.91.43.24.36.35.79.33,1.22v.19h-2.1v-.5h1.52c0-.22-.07-.44-.2-.61-.11-.14-.28-.22-.45-.21-.2,0-.39.08-.52.23-.13.18-.2.39-.19.61v.4c-.02.22.05.45.2.61.15.14.36.22.57.2.13,0,.25-.02.37-.07.12-.05.23-.12.32-.2l.41.4c-.15.15-.33.26-.52.34-.18.09-.38.14-.58.15v.05Z"/>
          <path id="Path_48" data-name="Path 48" class="cls-1" d="M44.27,44.47h.61v3.06h-.61v-3.06ZM46.1,47.53v-1.84c.01-.18-.05-.36-.16-.51-.12-.12-.28-.18-.45-.18-.16.01-.3.08-.42.18-.11.12-.17.29-.17.45v-.61c.08-.17.21-.33.36-.44.15-.1.33-.15.51-.15.29-.01.57.11.76.33.19.27.29.6.27.93v1.84h-.7ZM47.93,47.53v-1.84c0-.18-.05-.37-.17-.51-.13-.13-.31-.19-.49-.18-.15.01-.28.08-.38.18-.11.14-.16.32-.15.5l-.13-.61c.08-.19.21-.36.38-.49.16-.1.34-.16.53-.16.3-.02.59.1.78.33.2.27.3.6.27.93v1.84h-.65Z"/>
          <path id="Path_49" data-name="Path 49" class="cls-1" d="M50.76,47.63c-.37.03-.74-.11-1.01-.36-.25-.28-.38-.65-.35-1.02v-.35c-.03-.39.09-.77.34-1.06.25-.27.6-.41.96-.38.35-.02.69.14.91.43.24.36.35.79.32,1.22v.21h-2.08v-.51h1.51c0-.22-.06-.43-.18-.61-.11-.14-.28-.22-.45-.21-.2,0-.4.08-.53.23-.13.18-.2.39-.19.61v.4c-.02.22.05.45.2.61.16.14.36.22.58.2.12,0,.25-.02.36-.07.12-.04.23-.11.33-.2l.4.4c-.15.15-.32.26-.51.34-.18.09-.38.14-.59.15"/>
          <path id="Path_50" data-name="Path 50" class="cls-1" d="M52.76,44.47h.61v3.06h-.61v-3.06ZM54.64,47.53v-1.83c.01-.19-.05-.37-.17-.51-.12-.13-.3-.19-.48-.18-.17-.01-.34.05-.46.16-.11.12-.17.28-.16.44l-.06-.61c.08-.17.21-.32.37-.43.42-.25.95-.17,1.28.18.2.27.3.59.28.93v1.86h-.61Z"/>
          <path id="Path_51" data-name="Path 51" class="cls-1" d="M55.94,44.47h1.39v.55h-1.39v-.55ZM56.99,47.58c-.21.02-.41-.06-.55-.22-.13-.18-.19-.4-.17-.61v-3.19h.61v3.2c-.02.06-.02.11,0,.17.03.04.08.07.14.07h.29v.61l-.32-.04Z"/>
          <path id="Path_52" data-name="Path 52" class="cls-1" d="M59.86,43.24h.61v4.29h-.61v-4.29ZM60.19,45.84v-.58h1.36c.18.01.36-.06.49-.2.25-.34.25-.8,0-1.13-.12-.14-.3-.22-.49-.21h-1.36v-.57h1.37c.24,0,.47.05.68.16.4.24.63.67.61,1.13,0,.24-.05.49-.16.7-.11.19-.26.34-.45.45-.21.11-.44.17-.68.16l-1.37.09Z"/>
          <path id="Path_53" data-name="Path 53" class="cls-1" d="M63.37,44.47h1.4v.55h-1.4v-.55ZM64.42,47.58c-.21.02-.42-.06-.55-.21-.13-.18-.19-.39-.18-.61v-3.19h.61v3.2c-.02.06-.02.11,0,.17.03.04.08.07.14.07h.29v.61l-.31-.04Z"/>
          <path id="Path_54" data-name="Path 54" class="cls-1" d="M66.86,47.63c-.37.02-.73-.11-1-.36-.25-.28-.38-.65-.35-1.02v-.35c-.03-.39.09-.77.34-1.06.25-.27.6-.41.96-.38.35-.02.69.14.91.43.24.36.35.79.33,1.22v.21h-2.1v-.51h1.51c0-.22-.07-.43-.19-.61-.11-.14-.28-.22-.45-.21-.2,0-.4.08-.53.23-.13.18-.2.39-.19.61v.4c-.02.22.05.45.2.61.16.14.36.22.58.2.12,0,.25-.02.36-.07.12-.05.23-.12.33-.21l.4.4c-.15.14-.32.26-.51.34-.18.09-.38.15-.58.16h0Z"/>
          <path id="Path_55" data-name="Path 55" class="cls-1" d="M70.58,43.24h.61v4.29h-.61v-4.29ZM70.87,47.53v-.55h2.49v.61l-2.49-.06Z"/>
          <path id="Path_56" data-name="Path 56" class="cls-1" d="M73.77,44.47h1.39v.55h-1.39v-.55ZM74.81,47.58c-.21.02-.42-.06-.55-.21-.12-.18-.18-.4-.17-.61v-3.19h.6v3.2c-.02.05-.02.12,0,.17.03.05.08.07.14.07h.28v.61l-.29-.04Z"/>
          <path id="Path_57" data-name="Path 57" class="cls-1" d="M76.95,47.63c-.3.02-.59-.1-.79-.33-.2-.27-.3-.59-.28-.93v-.69c-.01-.33.08-.66.27-.94.33-.35.86-.43,1.27-.18.15.1.28.24.37.4l-.07.61c.01-.12-.01-.24-.07-.34-.05-.09-.12-.16-.2-.21-.1-.04-.22-.07-.33-.07-.18-.01-.35.06-.48.18-.11.15-.17.34-.16.53v.67c-.01.19.04.38.16.53.22.19.54.23.8.1.1-.05.17-.13.2-.23.06-.1.08-.22.07-.34v.66c-.06.15-.16.28-.28.37-.13.12-.31.19-.49.2M77.72,47.63v-4.4h.61v4.29l-.61.11Z"/>
        </g>
      </g>
    </g>
  </g>
</svg>