<?xml version="1.0" encoding="UTF-8"?>
<svg id="Layer_2" data-name="Layer 2" xmlns="http://www.w3.org/2000/svg" xmlns:xlink="http://www.w3.org/1999/xlink" viewBox="0 0 211.13 24.04">
  <defs>
    <style>
      .cls-1 {
        fill: #ebebe8;
      }

      .cls-1, .cls-2 {
        stroke-width: 0px;
      }

      .cls-2 {
        fill: none;
      }

      .cls-3 {
        clip-path: url(#clippath-1);
      }

      .cls-4 {
        clip-path: url(#clippath);
      }
    </style>
    <clipPath id="clippath">
      <rect class="cls-2" width="121.78" height="24.04"/>
    </clipPath>
    <clipPath id="clippath-1">
      <rect class="cls-2" x="133.09" y="0" width="78.04" height="24.04"/>
    </clipPath>
  </defs>
  <g id="Layer_1-2" data-name="Layer 1">
    <g id="Group_86" data-name="Group 86">
      <g id="Group_82" data-name="Group 82">
        <g class="cls-4">
          <g id="Group_81" data-name="Group 81">
            <path id="Path_145" data-name="Path 145" class="cls-1" d="M11.37,0h.61c.77-.03,1.53.15,2.19.54v.19l1.9.1c.03-.25.06-.5.1-.76l.19.1c.26,0,.51-.03.77-.05s.5-.04.76-.05l.09.09c.14.02.29.04.43.05q.42.04.52.14c.33.05.67.02.99-.09.45-.15.93-.17,1.38-.05.19.04.39.07.59.06h.22c.15.01.3.01.45.02.56,0,1.1.22,1.5.61.14.31.17.65.1.98-.08.2-.17.39-.29.57q.07.06.14.11c.16.18.22.43.18.67v1.67c0,.36,0,.72,0,1.08v1.58c0,.14-.03.28-.11.4h-.67c0,.12,0,.23.01.35,0,.31-.07.61-.2.89.01.32.12.4.35.64.15.13.24.32.23.52-.02.14-.04.28-.08.43-.02.27,0,.53.07.79.06.77,0,1.54-.19,2.28h.19v.19h.29c.09.71.14,1.43.15,2.15,0,.07,0,.14,0,.21.07,2.32.04,4.65.04,6.97-.35-.04-.69-.14-1-.3-.21-.12-.45-.18-.7-.17-.25.06-.46.23-.58.47q-.1.19-.28.27c-.57.17-1.18.14-1.73-.08-.25,0-.51-.01-.76-.01h-.23c-.25-.03-.51.01-.74.11-.27.02-.53.04-.8.05h-.24c-.4.03-.79.04-1.19.03-.56.01-1.13.08-1.68.19-.72.12-1.45.13-2.18.03-.7-.05-1.4-.03-2.1.08l-.1-.29c-.34-.25-.76-.38-1.18-.39q-.71-.08-1.03-.14c-.18-.07-.38-.04-.54.06-.21,0-.42,0-.64,0h-.6v-.19l-.17.07c-.48.18-1,.24-1.5.15-.26-.02-.52,0-.77.05-.38.03-.76.04-1.14.02-.27,0-.54.03-.8.08-.5.05-1-.07-1.41-.36-.09-.21-.09-.45,0-.67.09-.98.12-1.97.09-2.95v-.55c-.01-.14.02-.29.09-.41h.38c0-.41.02-.82.02-1.23,0-.14,0-.28,0-.42,0-.2,0-.4,0-.6,0-.12,0-.24,0-.37-.03-.31-.19-.6-.42-.8-.04-.16-.07-.33-.07-.51,0-.08,0-.17-.01-.26,0-.06,0-.13,0-.19h-.1v-.67h-.1c-.05-.33.02-.67.19-.95l.57.19c-.02-.08-.03-.16-.05-.24-.04-.23-.05-.46-.03-.7,0-.43-.11-.86-.3-1.25l-.1-.1c-.02-.28-.03-.56-.03-.84,0-.53-.08-1.06-.21-1.57C0,7.5-.02,6.95.08,6.42q.04-.27-.08-.46c.02-.34.05-.69.08-1.03q.04-.29-.08-.49c0-.14.02-.28.04-.42.05-.53.08-1.07.07-1.6v-.79c0-.16-.02-.33-.07-.48q-.04-.23.11-.48c.23-.22.53-.35.85-.35l.32-.04c.43-.02.86,0,1.29.05.37.03.73.04,1.1.05h.19c.26,0,.52.02.79.02h.58s.35.02.35.02c.21,0,.41.08.57.22.41.02.82.02,1.23,0h.34c.55,0,1.1-.11,1.61-.33.64-.25,1.33-.35,2.01-.3M16.17.44l.1.19-.1-.19ZM3.52.64h.86v-.1h-.86v.1ZM6.28.83h2.19v-.1h-2.19v.1ZM14.75,1.02h.95v-.1h-.95v.1ZM4.1,4.04l-.22.1-.23.11-.23.11-.57.27c.27.5.62.95,1.04,1.33l.23.23.23.23c.18.17.35.35.53.52l.27.26c.43.43.85.87,1.25,1.34.27.31.57.6.87.89.41.41.82.82,1.19,1.26.29.32.6.62.91.92.41.41.81.82,1.19,1.26.35.39.73.75,1.1,1.11s.72.73,1.05,1.12.71.74,1.08,1.09c.18.17.35.35.53.52l.27.26c.56.54,1.08,1.11,1.56,1.72.37.65.97,1.14,1.68,1.39.72.05,1.44.03,2.16-.07.48-1.01.91-2.04,1.32-3.08.07-.17.14-.34.22-.51q.05-.12.11-.25c.03-.08.07-.15.1-.22.06-.24,0-.49-.14-.69-.14-.13-.3-.24-.47-.33l-.31-.2-.17-.11c-.36-.23-.72-.48-1.07-.73-.88-.6-1.77-1.2-2.66-1.79-.82-.54-1.63-1.1-2.45-1.65-.85-.58-1.7-1.16-2.56-1.72-1.28-.85-2.57-1.71-3.84-2.58-.55-.38-1.11-.75-1.67-1.12-.28-.19-.57-.38-.85-.58l-.17-.12c-.16-.11-.31-.22-.47-.33-.34-.22-.45-.15-.8.01M17.69,4.27l-.28.08-.29.08c-.72.19-1.44.38-2.17.53l-.2.06-.1.19.19.13c.66.47,1.3.96,1.94,1.46.32.25.64.5.96.74.23.17.45.34.67.52l.2.16.17.14c.21.11.32.05.54-.01.07-.38.14-.77.2-1.15.02-.13.05-.26.07-.39.03-.19.07-.37.1-.56.02-.11.04-.23.06-.34.12-.35.09-.73-.09-1.06-.06-.04-.12-.09-.17-.13l-.18-.14-.18-.13-.25-.18c-.38-.15-.8-.15-1.18,0M.19,4.82l.1.19-.1-.19ZM19.6,6.53l.1.29-.1-.29ZM.1,6.91l.1.29-.1-.29ZM19.5,7.1l.1.29-.1-.29ZM19.22,8.43l.1.19-.1-.19ZM.48,9.77h.09v-.67h-.09v.67ZM.85,11.86l.1.29-.1-.29ZM4.37,14.81c-.02.06-.03.11-.05.17-.2.7-.45,1.36-.72,2.04-.2.52-.36,1.05-.46,1.6.49.45.99.9,1.5,1.33l.25.21c.24.18.52.31.82.37.24-.06.48-.13.71-.23l.2-.08c.21-.08.42-.16.63-.25l.63-.25c.13-.05.26-.1.39-.15.28-.12.57-.22.87-.29l-.19-.1c-.01-.06-.03-.12-.04-.18-.05-.21-.18-.39-.36-.51l-.19-.18c-.07-.06-.14-.12-.21-.19-.69-.64-1.37-1.29-2.03-1.96-.43-.61-1.04-1.08-1.74-1.35M.85,17.95h.1v-.86h-.09v.86ZM.38,20.99l.1.29-.1-.29ZM.29,22.42l.1.19-.1-.19Z"/>
            <path id="Path_146" data-name="Path 146" class="cls-1" d="M59.42,4.81h1.93q.47,0,.57.11h.34c1.33.27,2.54.96,3.44,1.98.11.13.21.26.31.4l.2.23c.52.68.85,1.49.95,2.34q.03.16.06.32c.42,1.8.15,3.69-.76,5.3-.14.19-.29.38-.44.56-.08.11-.17.22-.25.33l-.28.36c-.04.06-.09.11-.13.17-1.03,1.23-2.5,2.02-4.09,2.19-.85.07-1.71.07-2.57,0l-.23-.02c-1.61-.23-3.08-1.03-4.14-2.27-.08-.07-.14-.13-.22-.2-.17-.14-.32-.29-.45-.46v-.29h-.19c-.29-.47-.51-.99-.67-1.52l-.08-.27c-.07-.23-.14-.45-.2-.69h-.1q-.06-2.39.29-3.42l.06-.18c.26-.87.7-1.68,1.27-2.39l.15-.23c.94-1.16,2.27-1.94,3.75-2.19l.29-.05.21-.05c.33-.05.66-.07.99-.06M56.7,6.72l-.16.12c-.48.39-.81.92-.94,1.53-.04.12-.08.24-.12.36-.02.06-.04.12-.06.19-.04.13-.09.26-.14.39-.56,1.69-.46,3.53.29,5.15.29.76.74,1.45,1.33,2.02.18.16.34.33.48.52.12.19.31.32.53.37l.21.02.1.19c.12.06.24.12.37.15l.2.08c.15.06.32.08.48.06l.1.19q1.97.14,3.71-.67c.3-.28.56-.6.76-.95l.19-.31c.91-1.64.7-3.68.67-5.49h-.18v-.86h-.19q.03-.11.05-.22c.12-.74-.66-1.62-1.07-2.19-.24-.3-.54-.55-.88-.73-.09-.06-.18-.13-.28-.19-1.67-1.1-3.87-.99-5.42.28M52.61,10.62l.1.29-.1-.29ZM52.51,11.2l.1.38-.1-.38ZM64.78,12.53h.1v-1.05h-.1v1.05ZM64.69,13.67h.1v-.66h-.1v.66ZM64.59,14.43l.1.29-.1-.29ZM59.55,18.14h.76v-.1h-.76v.1Z"/>
            <path id="Path_147" data-name="Path 147" class="cls-1" d="M35.07,5.08h5.27q.28.01.38.11c.13.01.27.02.4.03,1.78.18,3.43,1.03,4.62,2.37,1.05,1.4,1.52,3.15,1.32,4.88-.2,1.99-1.23,3.8-2.83,4.99l-.15.13c-1.96,1.55-4.85,1.44-7.18,1.17-1.39-.1-2.78-.12-4.17-.07.18-.16.43-.23.67-.19.03-.06.06-.12.09-.18l.2-.39c0-.16.01-.33.01-.49v-4.54c0-.74,0-1.48,0-2.22v-4.81c-.01-.07-.02-.14-.04-.22-.24-.17-.53-.26-.83-.25l-.29-.02h-.22v-.1c.9-.18,1.81-.25,2.73-.21M33.85,17.47h.1V5.96h-.1v11.51ZM36.32,5.96c-.09.19-.13.41-.11.62v.9c0,.35,0,.7,0,1.04v.36c0,.56,0,1.13,0,1.69,0,.65,0,1.3,0,1.95,0,.56,0,1.13,0,1.69,0,.24,0,.48,0,.72v1.31c-.05.48.1.97.43,1.33.18.17.42.27.67.29l.1.19q2.83.16,5.33-.95l.23-.2c1-1.01,1.56-2.37,1.57-3.79,0-.4,0-.8,0-1.2v-1.08h-.1c-.02-.19-.04-.38-.07-.58,0-.14-.05-.27-.12-.38h-.19l-.05-.19-.07-.25c-.02-.08-.04-.16-.07-.25-.57-1.24-1.59-2.22-2.86-2.74-1.49-.53-3.09-.69-4.66-.48M44.53,11.57l.1.19-.1-.19ZM44.53,13.57h.1v-.48h-.1v.48ZM39.67,18.04l.38.1-.38-.1Z"/>
            <path id="Path_148" data-name="Path 148" class="cls-1" d="M95.03,4.73c.13.01.26.04.38.1.08.12.14.25.19.38.03.09.07.17.1.26s.07.19.11.29l.25.65c.02.06.05.12.07.18.31.81.65,1.61.98,2.42.15.37.3.73.45,1.09l.33.79.81,1.99q.06.15.12.3l.11.28c.03.08.06.15.1.23.13.34.26.68.39,1.02l3.9.1v.38l-.35.05c-.95.09-1.89.29-2.79.62q-.14.3.06.63c.08.13.15.27.23.41.04.07.08.13.11.2.22.42.54.78.93,1.04.17.05.36.07.54.05.17,0,.34,0,.51.04q.29.3.29.57h-4.66l-.1-.38.29-.1c-.04-.45-.17-.89-.38-1.28-.21-.4-.34-.84-.38-1.28h-5.42c-.46.7-.7,1.54-.67,2.38l1.05.19-.1.48h-4.57l-.1-.38c.3-.3.65-.23,1.05-.23.28-.02.53-.19.66-.43.15-.28.26-.57.38-.86.08-.18.15-.36.23-.54l.12-.29c.23-.55.46-1.09.7-1.64.1-.23.19-.45.29-.68l.52-1.2c.08-.17.14-.33.22-.5l.1-.24c.27-.63.54-1.26.8-1.9.2-.48.42-.96.64-1.44.1-.22.19-.44.27-.66.21-.54.45-1.07.69-1.59.22-.49.41-.98.56-1.49M93.8,7.87l.1.19-.1-.19ZM94.75,8.63l-.12.32c-.15.4-.3.81-.45,1.21l-.19.52c-.09.25-.19.5-.28.76-.03.08-.06.17-.09.25-.15.41-.31.82-.47,1.23-.03.08-.06.15-.09.23-.06.14-.12.29-.17.43-.16.39-.26.81-.3,1.23h1.14v-.1l3.33-.1c-.03-.53-.15-1.04-.38-1.52h-.19q-.05-.38-.1-.76h-.19v-.48h-.19l.1-.29h-.19c-.01-.06-.02-.13-.04-.2-.07-.32-.16-.63-.25-.95h-.19c-.03-.25-.06-.5-.1-.76h-.19q0-.1.02-.2c-.03-.3-.13-.59-.3-.84h-.1ZM98.46,18.14l.1.19-.1-.19ZM87.99,18.42h.48v-.1h-.48v.1Z"/>
            <path id="Path_149" data-name="Path 149" class="cls-1" d="M72.58,4.82c.19.03.38.06.57.1.23.01.47.02.7.03h.21c.23.01.45.02.68.02h.24c2.73.07,5.47.08,8.2-.03h.36s.31-.03.31-.03c.15-.02.3.02.43.1.03.24.05.46.06.7,0,.07,0,.14.01.21q.08,1.56-.07,1.85h-.29c-.23-.41-.36-.86-.38-1.33-.83-.28-1.71-.4-2.58-.35h-.44c-.36-.02-.71-.02-1.07-.03,0,1.48-.01,2.96-.02,4.44,0,.69,0,1.37,0,2.06,0,.6,0,1.2,0,1.8v2.33c-.05.48.06.96.32,1.37.15.08.32.13.49.12q.46.06.56.16c.22.04.44.07.67.1v.29h-.32q-2.74-.02-5.49.1l-.1-.38c.23-.14.5-.22.77-.23l.37-.06c.16-.24.24-.52.22-.8v-.82c0-.32,0-.64,0-.96,0-.23,0-.45,0-.67,0-.59,0-1.18.01-1.77,0-.94.01-1.88.02-2.83,0-.33,0-.65,0-.98,0-1.08.03-2.16.11-3.24l-.23.02c-.51.05-1.01.08-1.52.09h-.3c-.2.01-.41.01-.61.02-.57-.04-1.15.11-1.62.44-.15.16-.26.34-.33.55l-.14.28-.1.22h-.19c-.2-.31-.27-.69-.19-1.05.06-.29.14-.57.23-.84.02-.07.04-.14.06-.22q.16-.53.38-.74M74.49,5.21h2.28v-.1h-2.28v.1ZM80.96,5.21h2.47v-.1h-2.47v.1ZM72.11,6.25l.1.19-.1-.19ZM72.02,6.63l.1.29-.1-.29ZM83.81,6.82l.1.38-.1-.38ZM77.15,17.66h.1V7.58h-.1v10.08Z"/>
            <path id="Path_150" data-name="Path 150" class="cls-1" d="M115.6,4.8h1.18q.98,0,1.09.11l.3.03c.37.07.72.22,1.02.44l.18.11c.83.49,1.44,1.28,1.7,2.21.24,1.51-.08,3.05-.91,4.34l-.11.19c-.98,1.52-2.24,2.84-3.69,3.9-.23.19-.46.37-.68.56-.06.04-.11.09-.17.14-.13.11-.26.23-.39.35v.19l.19-.19c.2-.02.4-.04.6-.04h.38s.2,0,.2,0c.2,0,.41,0,.61-.02.48-.01.96-.03,1.44-.04.78.11,1.57-.09,2.19-.56.17-.26.31-.53.44-.82.1-.21.29-.37.51-.42q.1.1.11.42c-.02.47-.08.94-.18,1.4-.02.08-.03.17-.05.25-.04.44-.23.85-.55,1.16-1.59.51-3.77.2-5.42.2h-1.58c-.58,0-1.17-.04-1.75-.11,0-.25.1-.49.28-.66l.25-.18c.74-.6,1.46-1.24,2.13-1.91l.23-.22c.23-.22.46-.44.69-.67l.21-.21c.81-.86,1.49-1.84,2.02-2.9l.17-.31c.31-.64.49-1.34.5-2.06,0-.08,0-.17.01-.25.02-.51-.09-1.01-.3-1.47,0-.09-.02-.18-.03-.28-.16-.64-.56-1.19-1.12-1.53-.68-.33-1.46-.35-2.15-.06-.65.35-1.14.93-1.38,1.63-.09.3-.18.61-.27.92q-.29-.1-.48-.38c-.05-.38-.07-.76-.08-1.14,0-.11-.01-.21-.02-.32s0-.2-.01-.3,0-.18-.01-.28c0-.15.05-.3.15-.41.2-.15.42-.27.66-.36l.26-.12c.52-.22,1.07-.33,1.64-.32M113.02,6.63h.1v-.57h-.1v.57ZM118.25,17.29h.67v-.1h-.67v.1Z"/>
            <rect id="Rectangle_34" data-name="Rectangle 34" class="cls-1" x="35.67" y="5.01" width="4.47" height=".1"/>
            <rect id="Rectangle_35" data-name="Rectangle 35" class="cls-1" x="99.41" y="14.62" width="3.61" height=".1"/>
            <rect id="Rectangle_36" data-name="Rectangle 36" class="cls-1" x="59.84" y="4.73" width=".67" height=".1"/>
            <path id="Path_151" data-name="Path 151" class="cls-1" d="M115.86,4.73l.19.1-.19-.1Z"/>
          </g>
        </g>
      </g>
      <g id="Group_85" data-name="Group 85">
        <path id="Path_152" data-name="Path 152" class="cls-1" d="M143.59,0v5.77l5.49,3.14v6.24l5.04-2.89-.02-6.23L143.59,0Z"/>
        <path id="Path_153" data-name="Path 153" class="cls-1" d="M133.1,6.01l-.02,12.04,5.04-2.89v-6.28l5.45-3.12-5.04-2.89-5.44,3.13Z"/>
        <path id="Path_154" data-name="Path 154" class="cls-1" d="M143.58,18.28l-5.45-3.12h0v5.77l5.45,3.1,10.53-6.01-5.04-2.89-5.49,3.14Z"/>
        <g id="Group_84" data-name="Group 84">
          <g class="cls-3">
            <g id="Group_83" data-name="Group 83">
              <path id="Path_155" data-name="Path 155" class="cls-1" d="M181,8.65c-.33-.14-.69-.21-1.06-.21h-5.24c-.33,0-.66.06-.97.2-.6.25-1.08.73-1.33,1.32-.13.31-.2.64-.2.97v1.69c0,.33.06.66.2.97.25.6.73,1.08,1.33,1.33.31.13.64.2.97.2h5.24c.36,0,.72-.06,1.06-.19.31-.12.58-.3.82-.52.23-.22.41-.49.53-.79.13-.31.19-.64.19-.97v-1.95c-.08-.56-.33-1.08-.72-1.5-.23-.24-.51-.43-.82-.56M180.7,11.95c0,.19-.03.38-.1.55-.06.16-.15.3-.27.43-.11.12-.24.21-.39.27-.16.06-.33.09-.49.09h-4.06c-.18,0-.36-.03-.53-.1-.16-.06-.3-.16-.42-.27-.12-.12-.22-.26-.28-.42-.07-.16-.1-.34-.1-.52v-.39c0-.18.03-.36.11-.53.21-.48.68-.79,1.21-.79h4.08c.18,0,.36.03.53.1.15.06.28.16.38.28.1.12.19.25.25.4.06.15.09.31.1.48v.41h0ZM190.02,8.44h-3.8c-1.5,0-2.71,1.21-2.71,2.71v3.75c0,.12.1.22.22.22h1.4c.12,0,.22-.1.22-.22h0v-3.37c0-.69.56-1.25,1.25-1.25h3.42c.12,0,.22-.1.22-.22h0v-1.4c0-.12-.1-.22-.22-.22h0M197.03,8.44h-2.68c-.12,0-.22-.1-.22-.22v-2.19c0-.12-.1-.22-.22-.22,0,0,0,0,0,0h-1.4c-.12,0-.22.1-.22.22h0v2.19c0,.12-.1.22-.22.22h-.66c-.12,0-.22.1-.22.22h0v1.4c0,.12.1.22.22.22h.66c.12,0,.22.1.22.22h0v4.41c0,.12.1.22.22.22h1.4c.12,0,.22-.1.22-.22h0v-4.41c0-.12.1-.22.22-.22h2.68c.12,0,.22-.1.22-.22h0v-1.4c0-.12-.1-.22-.22-.22h0ZM210.91,5.82h-1.4c-.12,0-.22.1-.22.23v8.85c0,.12.1.22.22.23h1.4c.12,0,.22-.1.22-.23V6.04c0-.12-.09-.22-.22-.23h0M170.5,9.21c-.23-.23-.5-.41-.79-.53-.31-.13-.64-.2-.97-.2h-6.89c-.12,0-.22.1-.22.22v1.4c0,.12.1.22.22.22h6.24c.19,0,.38.02.56.08.15.04.3.12.42.23.11.1.2.23.26.38.06.17.09.34.08.52v.6c0,.19-.02.37-.08.55-.05.14-.14.27-.25.37-.12.1-.26.17-.42.21-.18.05-.37.07-.56.07h-6.24c-.12,0-.22.1-.22.22v3.66c0,.12.1.22.22.22h1.4c.12,0,.22-.1.22-.22v-1.83c0-.12.1-.22.22-.22h5.06c.33,0,.67-.06.97-.2.3-.13.56-.31.79-.53.23-.23.41-.5.53-.8.13-.31.2-.64.19-.97v-1.69c0-.33-.06-.67-.19-.97-.13-.3-.31-.56-.53-.79h0ZM207.52,9.1c-.19-.21-.43-.37-.69-.48-.27-.12-.57-.18-.86-.17h-7.54c-.12,0-.22.1-.22.22v1.4c0,.12.1.22.22.22h7.25c.33,0,.44.26.49.48.03.12-.05.23-.17.26-.01,0-.03,0-.04,0h-5.72c-.32,0-.64.03-.95.12-.23.07-.44.18-.63.33-.15.13-.27.3-.34.49-.07.19-.11.39-.11.59l.02.82c0,.28.07.56.22.8.14.22.32.4.53.55.21.14.43.24.67.3.2.06.41.09.62.1h7.64c.12,0,.22-.1.22-.22v-4.14c0-.32-.05-.63-.16-.92-.1-.27-.26-.52-.45-.74M206.23,13.25c0,.12-.1.22-.22.22h-5.26c-.12,0-.23-.01-.34-.04-.08-.02-.16-.07-.22-.12-.05-.05-.09-.11-.11-.18-.02-.1-.02-.21,0-.31.02-.06.06-.12.11-.16.06-.05.14-.09.22-.11.11-.03.23-.04.34-.04h5.26c.12,0,.22.1.22.22h0v.55h0Z"/>
            </g>
          </g>
        </g>
      </g>
    </g>
  </g>
</svg>