<?xml version="1.0" encoding="UTF-8"?>
<svg id="Layer_2" data-name="Layer 2" xmlns="http://www.w3.org/2000/svg" xmlns:xlink="http://www.w3.org/1999/xlink" viewBox="0 0 144.38 45.24">
  <defs>
    <style>
      .cls-1 {
        clip-path: url(#clippath-2);
      }

      .cls-2, .cls-3, .cls-4, .cls-5, .cls-6 {
        isolation: isolate;
      }

      .cls-7, .cls-8 {
        stroke-width: 0px;
      }

      .cls-7, .cls-3, .cls-4, .cls-5, .cls-6 {
        fill: #ebebe8;
      }

      .cls-9 {
        clip-path: url(#clippath-6);
      }

      .cls-8 {
        fill: none;
      }

      .cls-10 {
        clip-path: url(#clippath-7);
      }

      .cls-11 {
        clip-path: url(#clippath-1);
      }

      .cls-12 {
        clip-path: url(#clippath-4);
      }

      .cls-3 {
        letter-spacing: .04em;
      }

      .cls-3, .cls-4, .cls-5, .cls-6 {
        font-family: Montserrat-SemiBold, Montserrat;
        font-size: 5.04px;
        font-weight: 600;
      }

      .cls-13 {
        clip-path: url(#clippath-9);
      }

      .cls-14 {
        clip-path: url(#clippath);
      }

      .cls-15 {
        clip-path: url(#clippath-3);
      }

      .cls-16 {
        clip-path: url(#clippath-8);
      }

      .cls-17 {
        clip-path: url(#clippath-5);
      }

      .cls-4 {
        letter-spacing: .04em;
      }

      .cls-5 {
        letter-spacing: .04em;
      }
    </style>
    <clipPath id="clippath">
      <rect class="cls-8" width="144.38" height="45.24"/>
    </clipPath>
    <clipPath id="clippath-1">
      <rect class="cls-8" x="35.27" y="39.65" width="32.53" height="5.59"/>
    </clipPath>
    <clipPath id="clippath-2">
      <rect class="cls-8" x="69.73" y="39.65" width="3.66" height="5.59"/>
    </clipPath>
    <clipPath id="clippath-3">
      <rect class="cls-8" x="73.43" y="39.65" width="16.08" height="5.59"/>
    </clipPath>
    <clipPath id="clippath-4">
      <rect class="cls-8" x="89.6" y="39.65" width="3.02" height="5.59"/>
    </clipPath>
    <clipPath id="clippath-5">
      <rect class="cls-8" x="92.38" y="39.65" width="3.03" height="5.59"/>
    </clipPath>
    <clipPath id="clippath-6">
      <rect class="cls-8" x="95.36" y="39.65" width="8.08" height="5.59"/>
    </clipPath>
    <clipPath id="clippath-7">
      <rect class="cls-8" x="103.4" y="39.65" width="3.66" height="5.59"/>
    </clipPath>
    <clipPath id="clippath-8">
      <rect class="cls-8" x="107.05" y="39.65" width="3.42" height="5.59"/>
    </clipPath>
    <clipPath id="clippath-9">
      <rect class="cls-8" width="144.38" height="45.24"/>
    </clipPath>
  </defs>
  <g id="Layer_1-2" data-name="Layer 1">
    <g id="Group_70" data-name="Group 70">
      <g id="Group_67" data-name="Group 67">
        <g class="cls-14">
          <g id="Group_66" data-name="Group 66">
            <g id="Group_44" data-name="Group 44">
              <g id="Group_43" data-name="Group 43">
                <g class="cls-11">
                  <g id="Group_42" data-name="Group 42">
                    <g id="TRAINING_" data-name="TRAINING " class="cls-2">
                      <text class="cls-5" transform="translate(35.27 43.94)"><tspan x="0" y="0">TR</tspan></text>
                      <text class="cls-4" transform="translate(42.39 43.94)"><tspan x="0" y="0">A</tspan></text>
                      <text class="cls-5" transform="translate(46.37 43.94)"><tspan x="0" y="0">INING </tspan></text>
                      <text class="cls-6" transform="translate(64.23 43.94)"><tspan x="0" y="0">&amp;</tspan></text>
                    </g>
                  </g>
                </g>
              </g>
            </g>
            <g id="Group_47" data-name="Group 47">
              <g id="Group_46" data-name="Group 46">
                <g class="cls-1">
                  <g id="Group_45" data-name="Group 45">
                    <g id="C" class="cls-2">
                      <text class="cls-6" transform="translate(69.73 43.94)"><tspan x="0" y="0">C</tspan></text>
                    </g>
                  </g>
                </g>
              </g>
            </g>
            <g id="Group_50" data-name="Group 50">
              <g id="Group_49" data-name="Group 49">
                <g class="cls-15">
                  <g id="Group_48" data-name="Group 48">
                    <g id="ONSU" class="cls-2">
                      <text class="cls-3" transform="translate(73.43 43.94)"><tspan x="0" y="0">ON</tspan></text>
                      <text class="cls-4" transform="translate(82.16 43.94)"><tspan x="0" y="0">S</tspan></text>
                      <text class="cls-6" transform="translate(85.53 43.94)"><tspan x="0" y="0">U</tspan></text>
                    </g>
                  </g>
                </g>
              </g>
            </g>
            <g id="Group_53" data-name="Group 53">
              <g id="Group_52" data-name="Group 52">
                <g class="cls-12">
                  <g id="Group_51" data-name="Group 51">
                    <g id="L" class="cls-2">
                      <text class="cls-6" transform="translate(89.6 43.94)"><tspan x="0" y="0">L</tspan></text>
                    </g>
                  </g>
                </g>
              </g>
            </g>
            <g id="Group_56" data-name="Group 56">
              <g id="Group_55" data-name="Group 55">
                <g class="cls-17">
                  <g id="Group_54" data-name="Group 54">
                    <g id="T" class="cls-2">
                      <text class="cls-6" transform="translate(92.38 43.94)"><tspan x="0" y="0">T</tspan></text>
                    </g>
                  </g>
                </g>
              </g>
            </g>
            <g id="Group_59" data-name="Group 59">
              <g id="Group_58" data-name="Group 58">
                <g class="cls-9">
                  <g id="Group_57" data-name="Group 57">
                    <g id="AN" class="cls-2">
                      <text class="cls-4" transform="translate(95.39 43.94)"><tspan x="0" y="0">A</tspan></text>
                      <text class="cls-6" transform="translate(99.36 43.94)"><tspan x="0" y="0">N</tspan></text>
                    </g>
                  </g>
                </g>
              </g>
            </g>
            <g id="Group_62" data-name="Group 62">
              <g id="Group_61" data-name="Group 61">
                <g class="cls-10">
                  <g id="Group_60" data-name="Group 60">
                    <g id="C-2" class="cls-2">
                      <text class="cls-6" transform="translate(103.4 43.94)"><tspan x="0" y="0">C</tspan></text>
                    </g>
                  </g>
                </g>
              </g>
            </g>
            <g id="Group_65" data-name="Group 65">
              <g id="Group_64" data-name="Group 64">
                <g class="cls-16">
                  <g id="Group_63" data-name="Group 63">
                    <g id="Y" class="cls-2">
                      <text class="cls-6" transform="translate(107.1 43.94)"><tspan x="0" y="0">Y</tspan></text>
                    </g>
                  </g>
                </g>
              </g>
            </g>
          </g>
        </g>
      </g>
      <path id="Path_58" data-name="Path 58" class="cls-7" d="M0,0v5L34.45,0H0Z"/>
      <g id="Group_69" data-name="Group 69">
        <g class="cls-13">
          <g id="Group_68" data-name="Group 68">
            <path id="Path_59" data-name="Path 59" class="cls-7" d="M22.01,21.09l12.22-11H13.45c-2.25,1.79-4.53,3.62-6.82,5.49-1.76,1.48-3.5,2.93-5.22,4.33l-.33.23-1.08.94v11.93l34.87-.07L3.58,21.09h18.43Z"/>
            <path id="Path_60" data-name="Path 60" class="cls-7" d="M70.1,21.09h-16.84c.61,2.29,2.97,3.69,6.37,3.69,2.02.09,4-.54,5.58-1.79l3.43,3.08c-2.56,2.14-5.85,3.21-9.18,2.99-7.71,0-12.71-4.01-12.71-9.44s5.09-9.44,11.89-9.44,11.59,3.64,11.59,9.55c0,.27-.08.85-.13,1.35M53.13,18.34h10.97c-.46-2.36-2.57-3.84-5.46-3.84s-5.02,1.47-5.51,3.84"/>
            <rect id="Rectangle_24" data-name="Rectangle 24" class="cls-7" x="76.1" y="3.67" width="6.42" height="25.67"/>
            <path id="Path_61" data-name="Path 61" class="cls-7" d="M89.11,5.11c0-1.69,1.62-2.99,4.01-2.99s4.01,1.24,4.01,2.88-1.62,3.08-4.01,3.08-4.01-1.3-4.01-2.97M89.86,11.01h6.42v18.34h-6.42V11.01Z"/>
            <path id="Path_62" data-name="Path 62" class="cls-7" d="M118.19,27.68c-1.64.83-3.47,1.23-5.31,1.18-5.32,0-8.35-2.23-8.35-6.61v-7.57h-3.67v-3.67h3.67v-4.59h6.42v4.59h5.5v3.67h-5.5v7.5c0,1.58,1.05,2.43,2.8,2.43.92.02,1.84-.22,2.64-.68l1.8,3.76Z"/>
            <path id="Path_63" data-name="Path 63" class="cls-7" d="M144.26,21.09h-16.84c.61,2.29,2.97,3.69,6.37,3.69,2.02.09,4-.54,5.59-1.79l3.45,3.02c-2.57,2.15-5.87,3.22-9.21,2.99-7.69,0-12.71-4.01-12.71-9.44s5.1-9.44,11.88-9.44,11.59,3.64,11.59,9.55c-.01.47-.06.95-.13,1.42M127.33,18.34h10.97c-.46-2.36-2.55-3.84-5.46-3.84s-5.06,1.47-5.51,3.84"/>
          </g>
        </g>
      </g>
    </g>
  </g>
</svg>