<svg xmlns="http://www.w3.org/2000/svg" xmlns:xlink="http://www.w3.org/1999/xlink" width="816.119" height="816.119" viewBox="0 0 816.119 816.119">
  <defs>
    <clipPath id="clip-path">
      <rect id="Rectangle_8" data-name="Rectangle 8" width="816.119" height="816.119" fill="none" stroke="#191919" stroke-width="1"/>
    </clipPath>
  </defs>
  <g id="Group_33" data-name="Group 33" style="mix-blend-mode: exclusion;isolation: isolate">
    <g id="Group_26" data-name="Group 26">
      <g id="Group_25" data-name="Group 25" clip-path="url(#clip-path)">
        <path id="Path_18" data-name="Path 18" d="M262.017,609.471l10.073-36.464,18.075-33.38,23.98-38.1,44.231-6.643,37.843-.8,40.29-3.9,34.913,20.124,18.941,42.719,54.627-10.277,5.042,43.844,15.324,34.083,6.234,37.064L544.908,687.5l-13.016,34.974-10.229,29.076L503.2,780.685l-30.213,22.161-33.648,12.743-34.074-11.161-36.6-7.417-42.236,12.574-37.761-19.832,4.813-53.559L244.639,723.4l13.918-41.894L254.68,644.2Z" fill="none" stroke="#191919" stroke-width="1"/>
      </g>
    </g>
    <path id="Path_19" data-name="Path 19" d="M162.372,447.213l32.907-18.662,36.384-10.821,43.895-9.983,35.973,26.579,27.323,26.2,31.25,25.728,10.458,38.917-16.814,43.6,45.895,31.361-27.438,34.567L368.94,669.63l-21.8,30.616-39.908,2.174L273.3,717.946l-27.793,13.326-33.659,7.549-37.034-5.694-32.8-14.781-16.2-31.987-20.632-31.121L66.419,634.264,53.742,593.539,95.016,559.07,69.521,515.488,108.986,495.7l23.644-29.127Z" fill="none" stroke="#191919" stroke-width="1"/>
    <g id="Group_28" data-name="Group 28">
      <g id="Group_27" data-name="Group 27" clip-path="url(#clip-path)">
        <path id="Path_20" data-name="Path 20" d="M206.648,262.017l36.464,10.073,33.38,18.075,38.1,23.98,6.643,44.231.8,37.843,3.9,40.29L305.81,471.422l-42.719,18.941,10.277,54.627-43.844,5.042-34.083,15.324-37.064,6.234-29.755-26.682L93.648,531.892,64.572,521.663,35.434,503.2,13.273,472.987.53,439.339l11.161-34.074,7.417-36.6L6.534,326.433l19.832-37.761,53.559,4.813,12.79-48.846,41.894,13.918,37.314-3.877Z" fill="none" stroke="#191919" stroke-width="1"/>
      </g>
    </g>
    <path id="Path_21" data-name="Path 21" d="M368.907,162.373l18.662,32.907,10.821,36.384,9.983,43.9-26.579,35.973-26.2,27.323L329.871,370.1l-38.917,10.458-43.6-16.814-31.361,45.895-34.567-27.438L146.49,368.941l-30.616-21.8L113.7,307.234,98.174,273.3,84.848,245.507,77.3,211.848l5.694-37.034,14.781-32.8,31.987-16.2,31.121-20.632L181.856,66.42l40.725-12.677L257.05,95.017l43.582-25.495,19.783,39.465,29.127,23.644Z" fill="none" stroke="#191919" stroke-width="1"/>
    <g id="Group_30" data-name="Group 30">
      <g id="Group_29" data-name="Group 29" clip-path="url(#clip-path)">
        <path id="Path_22" data-name="Path 22" d="M554.1,206.648l-10.073,36.464-18.075,33.38-23.98,38.1-44.231,6.643-37.843.8-40.29,3.9L344.7,305.81l-18.941-42.719-54.627,10.277-5.042-43.844-15.324-34.083-6.234-37.064,26.682-29.755,13.016-34.974,10.229-29.076,18.463-29.138,30.213-22.161L376.78.53l34.074,11.161,36.6,7.417L489.686,6.534l37.761,19.832-4.813,53.559,48.846,12.79-13.918,41.894,3.877,37.314Z" fill="none" stroke="#191919" stroke-width="1"/>
      </g>
    </g>
    <path id="Path_23" data-name="Path 23" d="M653.747,368.908,620.84,387.57l-36.384,10.821-43.9,9.983L504.588,381.8l-27.323-26.2-31.25-25.728-10.458-38.917,16.814-43.6-45.895-31.361,27.438-34.567,13.265-34.936,21.8-30.616,39.908-2.174L542.82,98.175l27.793-13.326L604.272,77.3l37.034,5.694,32.8,14.781,16.2,31.987,20.632,31.121L749.7,181.857l12.677,40.725L721.1,257.051,746.6,300.633l-39.465,19.783-23.644,29.127Z" fill="none" stroke="#191919" stroke-width="1"/>
    <g id="Group_32" data-name="Group 32">
      <g id="Group_31" data-name="Group 31" clip-path="url(#clip-path)">
        <path id="Path_24" data-name="Path 24" d="M609.471,554.1l-36.464-10.073-33.38-18.075-38.1-23.98-6.643-44.231-.8-37.843-3.9-40.29L510.309,344.7l42.719-18.941-10.277-54.627,43.844-5.042,34.083-15.324,37.064-6.234L687.5,271.211l34.974,13.016,29.076,10.229,29.138,18.463,22.161,30.213,12.743,33.648-11.161,34.074-7.417,36.6,12.574,42.236-19.832,37.761-53.559-4.813L723.4,571.48,681.51,557.562,644.2,561.439Z" fill="none" stroke="#191919" stroke-width="1"/>
      </g>
    </g>
    <path id="Path_25" data-name="Path 25" d="M447.213,653.747,428.551,620.84,417.73,584.456l-9.983-43.9,26.579-35.973,26.2-27.323,25.728-31.25,38.917-10.458,43.6,16.814,31.361-45.895,34.567,27.438,34.936,13.265,30.616,21.8,2.174,39.908,15.526,33.934,13.326,27.793,7.549,33.659-5.694,37.034-14.781,32.8-31.987,16.2-31.121,20.632L634.264,749.7l-40.725,12.677L559.07,721.1,515.488,746.6,495.7,707.133l-29.127-23.644Z" fill="none" stroke="#191919" stroke-width="1"/>
  </g>
</svg>
