<?xml version="1.0" encoding="UTF-8"?>
<svg id="Layer_2" data-name="Layer 2" xmlns="http://www.w3.org/2000/svg" xmlns:xlink="http://www.w3.org/1999/xlink" viewBox="0 0 47.09 47.34">
  <defs>
    <style>
      .cls-1 {
        stroke: #ebebe8;
        stroke-width: .2px;
      }

      .cls-1, .cls-2, .cls-3 {
        fill: none;
      }

      .cls-4 {
        fill: #171717;
      }

      .cls-4, .cls-5, .cls-2 {
        stroke-width: 0px;
      }

      .cls-5 {
        fill: #ebebe8;
      }

      .cls-6 {
        clip-path: url(#clippath);
      }

      .cls-3 {
        stroke: #fff;
        stroke-miterlimit: 10;
        stroke-width: .25px;
      }
    </style>
    <clipPath id="clippath">
      <rect class="cls-2" width="47.09" height="47.34"/>
    </clipPath>
  </defs>
  <g id="Layer_1-2" data-name="Layer 1">
    <g class="cls-6">
      <g id="Group_71" data-name="Group 71">
        <path id="Path_64" data-name="Path 64" class="cls-5" d="M.15,32.68c3.2-1.9,5.01-5.49,4.61-9.2-.29-5.58-.12-11.2-.06-16.79C4.74,2.87,6.99.16,10.6.11,20.81-.04,31.01-.04,41.22.11c3.19-.02,5.8,2.55,5.82,5.75v.17c.07,10.21.07,20.42,0,30.62,0,1.26-.37,2.5-1.09,3.54-1.25,1.77-3.55,2.24-5.24,2.62-1.34.3-2.71.45-4.08.46-3.27.22-6.55.22-9.82,0-2.7-.23-5.75-.72-6.99.47-.37.38-.84.65-1.36.78-.66.13-1.34.03-1.93-.29-2.94-1.37-5.52-1.35-7.56,2.32-.34-3.48,1.55-5.32,3.29-6.96,1.35-1.28,2.52.65,3.66,1.24,1.58.8,2.19.55,2.16-1.24,0-4.31-.04-8.57,0-12.85,0-2-.62-2.28-2.29-1.28-3.67,2.21-7.36,4.38-11.11,6.46-.5.29-1.38.76-1.35,1.34.05.95,2.44.98,3.27,2.56.55,1.06.14,2.24-.22,3.23-.97,2.73-1.29,5.57.29,8.27-2.54-1.21-3.95-3.96-3.45-6.73.29-2.08.27-2.92-.39-3.59s-1.44-.31-2.16-.94c-.82-.73-.75-2.19-.53-3.41"/>
        <path id="Path_65" data-name="Path 65" class="cls-4" d="M8.78,3.77h7.9c4.87,0,8.62,1.39,8.62,5.64s-3.76,5.93-8.62,5.93h-3.75v7.45h-4.16V3.77ZM16.25,12.65c3.21,0,4.96-1.09,4.96-3.24s-1.75-2.95-4.96-2.95h-3.31v6.19h3.31ZM15.9,14.44l3.01-2.01,7.3,10.36h-4.66l-5.66-8.35Z"/>
        <path id="Path_66" data-name="Path 66" class="cls-4" d="M31.26,23.86l-6.23-7.47h4.62l2.62,3.42c.56.72,1.06,1.44,1.75,2.36h.14c.58-.94,1.06-1.65,1.57-2.36l2.49-3.42h4.41l-6.24,7.6,6.65,7.82h-4.63l-2.87-3.64c-.6-.79-1.19-1.57-1.87-2.51h-.14c-.62.95-1.16,1.72-1.73,2.51l-2.78,3.64h-4.4l6.65-7.95Z"/>
        <line id="Line_4" data-name="Line 4" class="cls-3" x1="13.1" y1="12.17" x2="13.1" y2="15.34"/>
        <line id="Line_5" data-name="Line 5" class="cls-2" x1="34.15" y1="20.89" x2="30.18" y2="24.9"/>
        <line id="Line_6" data-name="Line 6" class="cls-1" x1="34.15" y1="20.89" x2="30.18" y2="24.9"/>
        <rect id="Rectangle_26" data-name="Rectangle 26" class="cls-5" x="12.93" y="6.51" width=".31" height="16.27"/>
        <path id="Path_67" data-name="Path 67" class="cls-4" d="M20.38,36.05c.04-.92.81-1.65,1.73-1.62l.17.05c.42,0,.83.13,1.16.39l-.45.33c-.2-.17-.45-.27-.72-.29-.58-.05-1.1.38-1.15.96v.04s0,.09,0,.13c-.05.57.37,1.08.95,1.13,0,0,0,0,0,0h.17c.32,0,.63-.11.88-.31l.39.34c-.36.31-.82.47-1.29.45-.89.11-1.71-.53-1.82-1.42h0c0-.07-.01-.12-.01-.18"/>
        <path id="Path_68" data-name="Path 68" class="cls-4" d="M25.31,34.49h.72v2.62h1.7v.46h-2.41v-3.08Z"/>
        <rect id="Rectangle_27" data-name="Rectangle 27" class="cls-4" x="29.56" y="34.49" width=".72" height="3.09"/>
        <path id="Path_69" data-name="Path 69" class="cls-4" d="M32.22,36.05c.04-.93.81-1.65,1.74-1.62h.13c.42,0,.84.13,1.17.39l-.39.35c-.22-.18-.49-.27-.78-.27-.59-.04-1.09.4-1.13.99v.03s0,.09,0,.13c-.05.57.38,1.08.95,1.13,0,0,0,0,0,0h.17c.32,0,.63-.11.87-.31l.39.34c-.36.31-.82.47-1.29.45-.9.1-1.71-.54-1.82-1.44h0c0-.05-.01-.11-.01-.17"/>
        <path id="Path_70" data-name="Path 70" class="cls-4" d="M37.15,34.49h.72v1.44l1.44-1.39h.8l-1.25,1.19,1.44,1.87h-.76l-1.11-1.44-.58.55v.9h-.72l.03-3.12Z"/>
      </g>
    </g>
  </g>
</svg>