<svg xmlns="http://www.w3.org/2000/svg" xmlns:xlink="http://www.w3.org/1999/xlink" width="90.438" height="91.852" viewBox="0 0 90.438 91.852">
  <defs>
    <clipPath id="clip-path">
      <rect id="Rectangle_43" data-name="Rectangle 43" width="90.438" height="91.852" transform="translate(0 0)" fill="none"/>
    </clipPath>
  </defs>
  <g id="Group_102" data-name="Group 102" transform="translate(0 0)">
    <g id="Group_93" data-name="Group 93">
      <g id="Group_92" data-name="Group 92" clip-path="url(#clip-path)">
        <text id="O" transform="matrix(0.988, 0.158, -0.158, 0.988, 38.62, 7.376)" fill="#ebebe8" font-size="8.691" font-family="SharpGrotesk-Book20, 'Sharp Grotesk \32 0'"><tspan x="0" y="0">O</tspan></text>
        <text id="P" transform="matrix(0.988, 0.158, -0.158, 0.988, 44.784, 8.361)" fill="#ebebe8" font-size="8.691" font-family="SharpGrotesk-Book20, 'Sharp Grotesk \32 0'"><tspan x="0" y="0">P</tspan></text>
        <text id="E" transform="translate(50.466 9.267) rotate(9.061)" fill="#ebebe8" font-size="8.691" font-family="SharpGrotesk-Book20, 'Sharp Grotesk \32 0'"><tspan x="0" y="0">E</tspan></text>
        <text id="N" transform="translate(55.701 10.102) rotate(9.066)" fill="#ebebe8" font-size="8.691" font-family="SharpGrotesk-Book20, 'Sharp Grotesk \32 0'"><tspan x="0" y="0">N</tspan></text>
      </g>
    </g>
    <text id="_" data-name=" " transform="translate(61.906 11.092) rotate(9.066)" fill="#ebebe8" font-size="8.691" font-family="SharpGrotesk-Book20, 'Sharp Grotesk \32 0'"><tspan x="0" y="0"> </tspan></text>
    <text id="F" transform="matrix(0.655, 0.755, -0.755, 0.655, 64.381, 10.973)" fill="#ebebe8" font-size="8.691" font-family="SharpGrotesk-Book20, 'Sharp Grotesk \32 0'"><tspan x="0" y="0">F</tspan></text>
    <text id="O-2" data-name="O" transform="translate(67.738 14.845) rotate(49.064)" fill="#ebebe8" font-size="8.691" font-family="SharpGrotesk-Book20, 'Sharp Grotesk \32 0'"><tspan x="0" y="0">O</tspan></text>
    <text id="R" transform="translate(71.829 19.562) rotate(49.064)" fill="#ebebe8" font-size="8.691" font-family="SharpGrotesk-Book20, 'Sharp Grotesk \32 0'"><tspan x="0" y="0">R</tspan></text>
    <text id="_2" data-name=" " transform="matrix(0.655, 0.755, -0.755, 0.655, 75.71, 24.035)" fill="#ebebe8" font-size="8.691" font-family="SharpGrotesk-Medium20, 'Sharp Grotesk \32 0'" font-weight="500"><tspan x="0" y="0"> </tspan></text>
    <text id="F-2" data-name="F" transform="matrix(0.655, 0.755, -0.755, 0.655, 77.477, 26.073)" fill="#ebebe8" font-size="8.691" font-family="SharpGrotesk-MediumItalic20, 'Sharp Grotesk \32 0'" font-weight="500" font-style="italic"><tspan x="0" y="0">F</tspan></text>
    <g id="Group_95" data-name="Group 95">
      <g id="Group_94" data-name="Group 94" clip-path="url(#clip-path)">
        <text id="R-2" data-name="R" transform="translate(80.598 29.671) rotate(49.082)" fill="#ebebe8" font-size="8.691" font-family="SharpGrotesk-MediumItalic20, 'Sharp Grotesk \32 0'" font-weight="500" font-style="italic"><tspan x="0" y="0">R</tspan></text>
        <text id="E-2" data-name="E" transform="matrix(0.016, 1, -1, 0.016, 82.576, 34.424)" fill="#ebebe8" font-size="8.691" font-family="SharpGrotesk-MediumItalic20, 'Sharp Grotesk \32 0'" font-weight="500" font-style="italic"><tspan x="0" y="0">E</tspan></text>
        <text id="E-3" data-name="E" transform="translate(82.661 39.613) rotate(89.062)" fill="#ebebe8" font-size="8.691" font-family="SharpGrotesk-MediumItalic20, 'Sharp Grotesk \32 0'" font-weight="500" font-style="italic"><tspan x="0" y="0">E</tspan></text>
        <text id="L" transform="matrix(0.016, 1, -1, 0.016, 82.745, 44.817)" fill="#ebebe8" font-size="8.691" font-family="SharpGrotesk-MediumItalic20, 'Sharp Grotesk \32 0'" font-weight="500" font-style="italic"><tspan x="0" y="0">L</tspan></text>
        <text id="A" transform="matrix(0.016, 1, -1, 0.016, 82.83, 49.982)" fill="#ebebe8" font-size="8.691" font-family="SharpGrotesk-MediumItalic20, 'Sharp Grotesk \32 0'" font-weight="500" font-style="italic"><tspan x="0" y="0">A</tspan></text>
        <text id="N-2" data-name="N" transform="translate(82.921 55.487) rotate(89.076)" fill="#ebebe8" font-size="8.691" font-family="SharpGrotesk-MediumItalic20, 'Sharp Grotesk \32 0'" font-weight="500" font-style="italic"><tspan x="0" y="0">N</tspan></text>
      </g>
    </g>
    <text id="C" transform="translate(81.325 60.854) rotate(129.066)" fill="#ebebe8" font-size="8.691" font-family="SharpGrotesk-MediumItalic20, 'Sharp Grotesk \32 0'" font-weight="500" font-style="italic"><tspan x="0" y="0">C</tspan></text>
    <text id="E-4" data-name="E" transform="matrix(-0.63, 0.776, -0.776, -0.63, 77.592, 65.454)" fill="#ebebe8" font-size="8.691" font-family="SharpGrotesk-MediumItalic20, 'Sharp Grotesk \32 0'" font-weight="500" font-style="italic"><tspan x="0" y="0">E</tspan></text>
    <text id="_3" data-name=" " transform="translate(74.273 69.543) rotate(129.066)" fill="#ebebe8" font-size="8.691" font-family="SharpGrotesk-MediumItalic20, 'Sharp Grotesk \32 0'" font-weight="500" font-style="italic"><tspan x="0" y="0"> </tspan></text>
    <text id="W" transform="matrix(-0.63, 0.776, -0.776, -0.63, 72.571, 71.641)" fill="#ebebe8" font-size="8.691" font-family="SharpGrotesk-MediumItalic20, 'Sharp Grotesk \32 0'" font-weight="500" font-style="italic"><tspan x="0" y="0">W</tspan></text>
    <text id="O-3" data-name="O" transform="translate(68.434 79.254) rotate(169.054)" fill="#ebebe8" font-size="8.691" font-family="SharpGrotesk-MediumItalic20, 'Sharp Grotesk \32 0'" font-weight="500" font-style="italic"><tspan x="0" y="0">O</tspan></text>
    <g id="Group_97" data-name="Group 97">
      <g id="Group_96" data-name="Group 96" clip-path="url(#clip-path)">
        <text id="R-3" data-name="R" transform="matrix(-0.982, 0.19, -0.19, -0.982, 62.391, 80.424)" fill="#ebebe8" font-size="8.691" font-family="SharpGrotesk-MediumItalic20, 'Sharp Grotesk \32 0'" font-weight="500" font-style="italic"><tspan x="0" y="0">R</tspan></text>
        <text id="K" transform="translate(56.736 81.514) rotate(169.066)" fill="#ebebe8" font-size="8.691" font-family="SharpGrotesk-MediumItalic20, 'Sharp Grotesk \32 0'" font-weight="500" font-style="italic"><tspan x="0" y="0">K</tspan></text>
        <text id="_4" data-name=" " transform="translate(51.078 82.608) rotate(169.066)" fill="#ebebe8" font-size="8.691" font-family="SharpGrotesk-MediumItalic20, 'Sharp Grotesk \32 0'" font-weight="500" font-style="italic"><tspan x="0" y="0"> </tspan></text>
        <text id="_-" data-name="-" transform="translate(48.452 83.116) rotate(169.064)" fill="#ebebe8" font-size="8.691" font-family="SharpGrotesk-Medium20, 'Sharp Grotesk \32 0'" font-weight="500"><tspan x="0" y="0">-</tspan></text>
        <text id="_5" data-name=" " transform="matrix(-0.982, 0.19, -0.19, -0.982, 43.854, 84.004)" fill="#ebebe8" font-size="8.691" font-family="SharpGrotesk-Medium20, 'Sharp Grotesk \32 0'" font-weight="500"><tspan x="0" y="0"> </tspan></text>
        <text id="B" transform="translate(41.498 85.895) rotate(-150.937)" fill="#ebebe8" font-size="8.691" font-family="SharpGrotesk-Book20, 'Sharp Grotesk \32 0'"><tspan x="0" y="0">B</tspan></text>
        <text id="A-2" data-name="A" transform="translate(36.452 83.091) rotate(-150.941)" fill="#ebebe8" font-size="8.691" font-family="SharpGrotesk-Book20, 'Sharp Grotesk \32 0'"><tspan x="0" y="0">A</tspan></text>
      </g>
    </g>
    <text id="S" transform="translate(31.255 80.203) rotate(-150.936)" fill="#ebebe8" font-size="8.691" font-family="SharpGrotesk-Book20, 'Sharp Grotesk \32 0'"><tspan x="0" y="0">S</tspan></text>
    <text id="E-5" data-name="E" transform="translate(26.466 77.543) rotate(-150.937)" fill="#ebebe8" font-size="8.691" font-family="SharpGrotesk-Book20, 'Sharp Grotesk \32 0'"><tspan x="0" y="0">E</tspan></text>
    <text id="D" transform="translate(21.831 74.966) rotate(-150.935)" fill="#ebebe8" font-size="8.691" font-family="SharpGrotesk-Book20, 'Sharp Grotesk \32 0'"><tspan x="0" y="0">D</tspan></text>
    <text id="_6" data-name=" " transform="translate(16.417 72.71) rotate(-110.93)" fill="#ebebe8" font-size="8.691" font-family="SharpGrotesk-Book20, 'Sharp Grotesk \32 0'"><tspan x="0" y="0"> </tspan></text>
    <text id="I" transform="translate(15.454 70.195) rotate(-110.934)" fill="#ebebe8" font-size="8.691" font-family="SharpGrotesk-Book20, 'Sharp Grotesk \32 0'"><tspan x="0" y="0">I</tspan></text>
    <text id="N-3" data-name="N" transform="matrix(-0.357, -0.934, 0.934, -0.357, 14.035, 66.485)" fill="#ebebe8" font-size="8.691" font-family="SharpGrotesk-Book20, 'Sharp Grotesk \32 0'"><tspan x="0" y="0">N</tspan></text>
    <text id="_7" data-name=" " transform="translate(11.793 60.625) rotate(-110.934)" fill="#ebebe8" font-size="8.691" font-family="SharpGrotesk-Book20, 'Sharp Grotesk \32 0'"><tspan x="0" y="0"> </tspan></text>
    <g id="Group_99" data-name="Group 99">
      <g id="Group_98" data-name="Group 98" clip-path="url(#clip-path)">
        <text id="J" transform="matrix(-0.357, -0.934, 0.934, -0.357, 10.801, 58.032)" fill="#ebebe8" font-size="8.691" font-family="SharpGrotesk-Book20, 'Sharp Grotesk \32 0'"><tspan x="0" y="0">J</tspan></text>
        <text id="O-4" data-name="O" transform="matrix(-0.357, -0.934, 0.934, -0.357, 8.99, 53.297)" fill="#ebebe8" font-size="8.691" font-family="SharpGrotesk-Book20, 'Sharp Grotesk \32 0'"><tspan x="0" y="0">O</tspan></text>
        <text id="H" transform="translate(5.966 47.959) rotate(-70.933)" fill="#ebebe8" font-size="8.691" font-family="SharpGrotesk-Book20, 'Sharp Grotesk \32 0'"><tspan x="0" y="0">H</tspan></text>
        <text id="O-5" data-name="O" transform="matrix(0.327, -0.945, 0.945, 0.327, 7.995, 42.089)" fill="#ebebe8" font-size="8.691" font-family="SharpGrotesk-Book20, 'Sharp Grotesk \32 0'"><tspan x="0" y="0">O</tspan></text>
        <text id="R-4" data-name="R" transform="translate(10.043 36.164) rotate(-70.934)" fill="#ebebe8" font-size="8.691" font-family="SharpGrotesk-Book20, 'Sharp Grotesk \32 0'"><tspan x="0" y="0">R</tspan></text>
      </g>
    </g>
    <text id="_8" data-name=" " transform="translate(11.972 30.58) rotate(-70.937)" fill="#ebebe8" font-size="8.691" font-family="SharpGrotesk-Book20, 'Sharp Grotesk \32 0'"><tspan x="0" y="0"> </tspan></text>
    <text id="B-2" data-name="B" transform="matrix(0.327, -0.945, 0.945, 0.327, 12.88, 27.954)" fill="#ebebe8" font-size="8.691" font-family="SharpGrotesk-Book20, 'Sharp Grotesk \32 0'"><tspan x="0" y="0">B</tspan></text>
    <text id="A-3" data-name="A" transform="translate(13.555 22.17) rotate(-30.941)" fill="#ebebe8" font-size="8.691" font-family="SharpGrotesk-Book20, 'Sharp Grotesk \32 0'"><tspan x="0" y="0">A</tspan></text>
    <text id="H-2" data-name="H" transform="translate(18.578 19.158) rotate(-30.936)" fill="#ebebe8" font-size="8.691" font-family="SharpGrotesk-Book20, 'Sharp Grotesk \32 0'"><tspan x="0" y="0">H</tspan></text>
    <text id="R-5" data-name="R" transform="translate(23.928 15.952) rotate(-30.938)" fill="#ebebe8" font-size="8.691" font-family="SharpGrotesk-Book20, 'Sharp Grotesk \32 0'"><tspan x="0" y="0">R</tspan></text>
    <text id="U" transform="translate(28.933 12.952) rotate(-30.936)" fill="#ebebe8" font-size="8.691" font-family="SharpGrotesk-Book20, 'Sharp Grotesk \32 0'"><tspan x="0" y="0">U</tspan></text>
    <g id="Group_101" data-name="Group 101">
      <g id="Group_100" data-name="Group 100" clip-path="url(#clip-path)">
        <text id="_9" data-name=" " transform="matrix(0.858, -0.514, 0.514, 0.858, 34.084, 9.865)" fill="#ebebe8" font-size="8.691" font-family="SharpGrotesk-Book20, 'Sharp Grotesk \32 0'"><tspan x="0" y="0"> </tspan></text>
      </g>
    </g>
  </g>
</svg>
