<?xml version="1.0" encoding="UTF-8"?>
<svg id="Layer_2" data-name="Layer 2" xmlns="http://www.w3.org/2000/svg" viewBox="0 0 48.49 49.02">
  <defs>
    <style>
      .cls-1 {
        fill: #ebebe8;
      }

      .cls-1, .cls-2, .cls-3 {
        stroke-width: 0px;
      }

      .cls-2 {
        fill: none;
      }

      .cls-3 {
        fill: #191919;
      }
    </style>
  </defs>
  <g id="Layer_1-2" data-name="Layer 1">
    <g>
      <path id="Path_82" data-name="Path 82" class="cls-1" d="M23.98,0c13.25,0,23.98,10.74,23.98,23.98s-10.74,23.98-23.98,23.98S0,37.23,0,23.98,10.74,0,23.98,0"/>
      <path id="Path_83" data-name="Path 83" class="cls-3" d="M16.24,24.35c-1.16,2.33-3.65,4.37-3.1,7.19,2.71.61,6.25.11,9.13.26v.02c11.33-.62,9.15,3.01,9.67-7.75.02-.59-.04-1.1-.78-1.04-.67.06-1.57-.41-1.76.79-.41,1.57-.31,4.18-2.43,4.3-1.79.02-3.64.38-5.4-.01.51-2.69,14.5-20.97,9.92-20.76-5.22.02-10.43.02-15.65,0-.8,0-1.11.22-1.12,1.04-.04,2.09-.16,4.17-.25,6.27-.02.47-.21,1.09.58,1.06.67-.02,1.57.41,1.82-.74.44-1.48.63-3.74,2.61-3.77,1.21-.06,2.41-.13,3.62-.15,1.03-.02,1.08.08.56.95l-7.39,12.34"/>
      <path id="Path_84" data-name="Path 84" class="cls-3" d="M39.37,27.37h-.39c-1.86,16.63-23.16,1.68-30.27,12.67,5.01-3.34,8.45-3.33,14.34-2.38,7.28,1.54,17.2-1.11,16.13-10.29"/>
      <path id="Path_85" data-name="Path 85" class="cls-3" d="M12.81,39.65l-.92.39.1.27.73-.16c6.69-1.32,14.05,2.52,20.29-1.18l-.12-.27c-6.47,2.52-13.59-1.42-20.08.96"/>
      <rect id="Rectangle_31" data-name="Rectangle 31" class="cls-2" x=".62" y=".02" width="47.87" height="49.01"/>
    </g>
  </g>
</svg>