<?xml version="1.0" encoding="UTF-8"?>
<svg id="Layer_1" data-name="Layer 1" xmlns="http://www.w3.org/2000/svg" viewBox="0 0 418.4 418.4">
  <defs>
    <style>
      .cls-1 {
        fill: #ebebe8;
      }

      .cls-1, .cls-2 {
        stroke-width: 0px;
      }

      .cls-2 {
        fill: #191919;
      }
    </style>
  </defs>
  <circle class="cls-1" cx="209.2" cy="209.2" r="209.2"/>
  <g>
    <path class="cls-2" d="M87.58,137.62s0,0,0,0c0,0,0,0,0,0,7.1,1.13,13.71,2.42,13.71,2.42,4.41.86,10.65.73,23.06-.48,6.08-.59,18.07-1.67,29.82-3.05,3.92-.46,5.13-.63,7.33-.67,8.15-.17,14.11-.29,19.3,1.49.8.28,3.01,1.09,4.02.12.65-.63.49-1.74.48-2.14-.12-8.99-.11-17.98,0-26.97.02-1.95-.57-3.25-1.99-4.58-6.93-6.5-13.75-13.11-20.98-20.04h177.67c-5.73,8.05-11.72,15.68-16.2,24.28-4.48,8.61-7.94,17.66-11.57,26.67-.3-.65-.74-1.59-1.3-2.7-3.42-6.82-7-11.79-8.98-14.37-2.88-3.75-5.47-7.33-9.24-10.22-6.37-4.88-14.06-7.45-22.81-8.39-10.74-1.16-21.49-.61-32.23-.85-5.22-.11-10.45-.05-15.67-.27-.97-.04-1.57.07-1.93.42-.64.62-.5,1.71-.47,1.97.32,3.44.05,72.45,0,74.64,0,.29-.06,1.38.64,2.2.52.6,1.28.85,2.33.98,1.64.21,4.84.65,6.51-1.04.92-.93.92-2.77.92-6.5,0-20.18.04-40.35-.05-60.53-.01-2.32.54-2.87,2.91-2.98,9.5-.42,19.01-.55,28.51-.41,9.03.13,17.91,1.29,26.24,5.06,5.38,2.44,9.94,5.91,12.85,11.17-.58.64-.9.31-1.2.04-8.49-7.66-18.79-10.44-29.87-11.24-10.75-.78-21.49-.65-32.24,0-2.2.13-2.79.84-2.78,2.98.07,20.28.08,40.56,0,60.84,0,2.15.68,2.61,2.68,2.58,6.69-.11,13.38-.14,20.07.01,2.2.05,3.69-.67,5.14-2.24,7.97-8.56,16.03-17.04,24.06-25.54.28-.3.62-.53,1.21-1.03v71.37c-2.52-2.4-4.85-4.54-7.1-6.76-6.62-6.53-13.24-13.08-19.8-19.67-1.09-1.1-2.14-1.7-3.78-1.69-11.6.08-23.21.09-34.81,0-1.93-.02-2.41.45-2.41,2.4.07,27.18.06,54.36.01,81.54,0,1.62.51,2.72,1.65,3.8,6.91,6.53,13.78,13.12,20.53,19.56-.26.27-.69.67-1.31,1.03-1.33.77-2.66.84-3.4.85-15.15.13-24.99-.65-24.99-.65-.44-.03-1.45-.1-2.03.52-.52.56-.44,1.42-.39,1.92.45,4.23.68,6.35.9,6.71,1.72,2.74,6.41,2.69,8.34,2.68,7.87-.06,20.11.05,35.75.03-.99-1.29-1.62-2.16-2.3-3-6.9-8.53-13.77-17.07-20.73-25.56-1.2-1.46-1.7-2.92-1.69-4.82.06-24.67.1-49.34-.04-74.01-.02-3.03.97-3.54,3.68-3.49,8.47.16,16.94.06,25.4.06q5.91,0,10.16,4.48c-.75.87-1.75.4-2.59.41-9.83.04-19.66.1-29.48-.03-2.18-.03-2.74.53-2.73,2.73.09,22.69.07,45.37.03,68.06,0,1.68.5,2.94,1.56,4.23,3.22,3.94,20.85,25.3,27.23,33.59.64.83,1.15,1.5,1.44,1.89-.77.02-1.96.04-3.41.05-20.26.15-43.77-.02-48.61-.05-2.41-.02-3,.67-2.91,2.98.19,4.48.05,8.98.05,14.31-2.06-3.27-3.66-5.95-5.38-8.54-2.92-4.37-4.37-6.54-6.4-7.62-1.94-1.03-3.39-1.12-9.74-1.07-12.5.1-15.14.27-18.88-.79-3.53-1-6.19-2.57-7.87-3.72h31.3c.1-.26.19-.52.29-.77-6.14-4.8-10.95-11.76-20.33-11.19-4.88.3-9.78.05-15.29.05,2.39-2.19,4.27-4.14,6.38-5.79,5.87-4.58,8.59-10.81,8.75-17.96.3-13.06.15-26.13.17-39.2.01-9.92,0-19.84,0-30.08-4.27,1.47-7.27,4.35-10.44,6.95q-3.77-3.69.15-6.96c2.1-1.73,4.28-3.43,6.88-4.27,2.81-.9,3.64-2.5,3.49-5.44-.28-5.84-.08-5.85-5.62-3.63-5.62,2.25-10.21,5.96-14.31,10.32-1.43-1.61-1.38-3.13-.62-4.97,3.6-8.71,9.51-15.15,18.29-18.71,1.77-.72,2.23-1.63,2.21-3.42-.1-7-.04-14.01-.04-21.01,0-6.07-3.43-10.41-9.41-10.68-8.3-.38-16.64-.1-25.57-.1,4.88,3.49,5.72,8.13,5.71,13.17-.02,39.31-.02,78.61,0,117.92,0,5.08-.93,9.72-6.13,13.16h10.82c-.26.45-2.95,5.01-4.45,5.63-.18.07-.37.15-.37.15s-1.13.42-2.36.61c-1.9.28-18.23.19-26.97-.04-5.02-.13-9.67.64-14.18,2.87-2.91,1.44-6.03,2.44-9.18,3.35,5.11-3.85,9.66-8.04,12.57-13.77,2.12-4.17,3.23-8.56,3.23-13.23,0-17.56.12-35.13-.03-52.69-.19-22.67-.62-45.33-.85-68,0-.78-.15-1.37-.42-1.86,0,0-.5-.93-1.63-1.56-1.55-.86-16.91-7.26-37.95-15.8,0,0,0,0,0,0,0,0,0,0,0,0,.01,0,22.03,1.61,22.03,1.62Z"/>
    <path class="cls-2" d="M288.01,237.41c-4.06,6-8.11,12-12.32,18.22,3.04.53,5.71.91,8.09,2.27,5.78,3.32,6.51,8.76,1.78,13.37-3.06,2.99-6.1,5.99-9.16,8.97-1.31,1.27-2.56,1.57-4.43.61-4.25-2.19-8.84-2.2-13.42-1.02-.98.25-1.9.78-3.05.37,4.02-5.95,8.03-11.87,12.18-18.01-2.03-.44-3.78-.67-5.43-1.2-5.28-1.7-7.53-5.76-6.43-11.18,1.07-5.32,4.63-8.71,8.85-11.6,1.31-.89,2.82-.61,4.26-.61,4.91,0,9.81.04,14.72.1,1.36.02,2.69-.08,4.35-.28Z"/>
    <path class="cls-2" d="M295.67,152.56c3.64,1.02,4.76,2.92,4.72,6.45-.19,22.15-.1,44.3-.1,66.45,0,1.02,0,2.05,0,3.41-3.01-1.13-4.77-2.25-4.73-5.92.21-22.36.11-44.72.11-67.08,0-1.03,0-2.06,0-3.32Z"/>
    <path class="cls-2" d="M322.42,146.28c-3.25-.94-3.88-2.7-2.91-5.88,5.69-18.59,16.26-34.13,29.36-48.19,1.4-1.5,1.99-.46,2.96.25,1.42,1.05,1.29,1.88.15,3.22-8.21,9.63-15.61,19.83-21.57,31.03-3.34,6.26-5.96,12.82-7.98,19.56Z"/>
    <path class="cls-1" d="M262.76,274.4c2.53-3.72,4.68-6.89,6.86-10.04.45-.65.69-1.52,1.66-1.71,4.6-.9,10.8,5.98,9.38,10.44-.21.67.02,1.81-1.46,1.2-5.23-2.18-10.53-1.93-16.45.11Z"/>
    <path class="cls-1" d="M271.45,243.85c1.97,0,3.95,0,5.92,0,1.52,0,2.53.25,1.25,2.05-1.86,2.62-3.63,5.31-5.41,7.98-.47.71-.83,1.24-1.94,1.1-4.33-.55-8.15-4.61-8.21-8.89,0-.37-.07-1.28.5-1.77.24-.21.52-.27,1.13-.34.6-.07,1.43-.15,2.43-.17,1.44.01,2.88.02,4.32.03Z"/>
  </g>
</svg>